M48
; DRILL file {KiCad 5.1.7-a382d34a8~87~ubuntu18.04.1} date Mon Nov  2 19:02:03 2020
; FORMAT={-:-/ absolute / metric / decimal}
; #@! TF.CreationDate,2020-11-02T19:02:03+01:00
; #@! TF.GenerationSoftware,Kicad,Pcbnew,5.1.7-a382d34a8~87~ubuntu18.04.1
; #@! TF.FileFunction,Plated,1,2,PTH
FMAT,2
METRIC
T1C0.700
T2C0.750
T3C0.800
T4C1.000
%
G90
G05
T1
X317.035Y-360.635
X317.035Y-363.175
X291.635Y-347.935
X291.635Y-350.475
X393.235Y-340.315
X393.235Y-342.855
X342.308Y-340.442
X342.308Y-342.982
X291.635Y-354.285
X291.635Y-356.825
X291.635Y-340.315
X291.635Y-342.855
X342.308Y-348.062
X342.308Y-350.602
X291.635Y-360.635
X291.635Y-363.175
X368.216Y-360.635
X368.216Y-363.175
X393.235Y-354.285
X393.235Y-356.825
X317.035Y-354.285
X317.035Y-356.825
X317.035Y-340.315
X317.035Y-342.855
X342.308Y-354.412
X342.308Y-356.952
X342.308Y-360.762
X342.308Y-363.302
X368.089Y-348.062
X368.089Y-350.602
X368.216Y-354.285
X368.216Y-356.825
X393.362Y-360.635
X393.362Y-363.175
X317.035Y-347.935
X317.035Y-350.475
X368.216Y-340.442
X368.216Y-342.982
X393.235Y-347.935
X393.235Y-350.475
T2
X344.848Y-355.682
X346.118Y-354.412
X346.118Y-356.952
X344.848Y-362.032
X346.118Y-360.762
X346.118Y-363.302
X370.629Y-362.032
X371.899Y-360.762
X371.899Y-363.302
X395.775Y-361.905
X397.045Y-360.635
X397.045Y-363.175
X370.756Y-355.428
X372.026Y-354.158
X372.026Y-356.698
X294.175Y-355.555
X295.445Y-354.285
X295.445Y-356.825
X319.575Y-361.905
X320.845Y-360.635
X320.845Y-363.175
X294.175Y-349.205
X295.445Y-347.935
X295.445Y-350.475
X395.775Y-341.585
X397.045Y-340.315
X397.045Y-342.855
X319.575Y-355.555
X320.845Y-354.285
X320.845Y-356.825
X294.175Y-341.585
X295.445Y-340.315
X295.445Y-342.855
X370.756Y-349.332
X372.026Y-348.062
X372.026Y-350.602
X294.175Y-361.905
X295.445Y-360.635
X295.445Y-363.175
X395.775Y-349.205
X397.045Y-347.935
X397.045Y-350.475
X319.575Y-349.205
X320.845Y-347.935
X320.845Y-350.475
X370.756Y-341.839
X372.026Y-340.569
X372.026Y-343.109
X395.775Y-355.555
X397.045Y-354.285
X397.045Y-356.825
X319.575Y-341.585
X320.845Y-340.315
X320.845Y-342.855
X344.848Y-341.712
X346.118Y-340.442
X346.118Y-342.982
X344.848Y-349.332
X346.118Y-348.062
X346.118Y-350.602
T3
X357.929Y-340.442
X357.929Y-342.982
X357.929Y-345.522
X357.929Y-348.062
X357.929Y-350.602
X357.929Y-353.142
X357.929Y-355.682
X357.929Y-358.222
X357.929Y-360.762
X357.929Y-363.302
X365.549Y-340.442
X365.549Y-342.982
X365.549Y-345.522
X365.549Y-348.062
X365.549Y-350.602
X365.549Y-353.142
X365.549Y-355.682
X365.549Y-358.222
X365.549Y-360.762
X365.549Y-363.302
X281.21Y-340.315
X281.21Y-342.855
X281.21Y-345.395
X281.21Y-347.935
X281.21Y-350.475
X281.21Y-353.015
X281.21Y-355.555
X281.21Y-358.095
X281.21Y-360.635
X281.21Y-363.175
X288.83Y-340.315
X288.83Y-342.855
X288.83Y-345.395
X288.83Y-347.935
X288.83Y-350.475
X288.83Y-353.015
X288.83Y-355.555
X288.83Y-358.095
X288.83Y-360.635
X288.83Y-363.175
X332.148Y-340.442
X332.148Y-342.982
X332.148Y-345.522
X332.148Y-348.062
X332.148Y-350.602
X332.148Y-353.142
X332.148Y-355.682
X332.148Y-358.222
X332.148Y-360.762
X332.148Y-363.302
X339.768Y-340.442
X339.768Y-342.982
X339.768Y-345.522
X339.768Y-348.062
X339.768Y-350.602
X339.768Y-353.142
X339.768Y-355.682
X339.768Y-358.222
X339.768Y-360.762
X339.768Y-363.302
X383.075Y-340.442
X383.075Y-342.982
X383.075Y-345.522
X383.075Y-348.062
X383.075Y-350.602
X383.075Y-353.142
X383.075Y-355.682
X383.075Y-358.222
X383.075Y-360.762
X383.075Y-363.302
X390.695Y-340.442
X390.695Y-342.982
X390.695Y-345.522
X390.695Y-348.062
X390.695Y-350.602
X390.695Y-353.142
X390.695Y-355.682
X390.695Y-358.222
X390.695Y-360.762
X390.695Y-363.302
X306.875Y-340.315
X306.875Y-342.855
X306.875Y-345.395
X306.875Y-347.935
X306.875Y-350.475
X306.875Y-353.015
X306.875Y-355.555
X306.875Y-358.095
X306.875Y-360.635
X306.875Y-363.175
X314.495Y-340.315
X314.495Y-342.855
X314.495Y-345.395
X314.495Y-347.935
X314.495Y-350.475
X314.495Y-353.015
X314.495Y-355.555
X314.495Y-358.095
X314.495Y-360.635
X314.495Y-363.175
T4
X400.855Y-347.935
X400.855Y-350.475
X400.855Y-353.015
X400.855Y-355.555
X303.319Y-349.205
X303.319Y-351.745
X303.319Y-354.285
X303.319Y-356.825
X379.646Y-348.189
X379.646Y-350.729
X379.646Y-353.269
X379.646Y-355.809
X324.909Y-349.205
X324.909Y-351.745
X324.909Y-354.285
X324.909Y-356.825
X375.836Y-348.189
X375.836Y-350.729
X375.836Y-353.269
X375.836Y-355.809
X328.846Y-349.205
X328.846Y-351.745
X328.846Y-354.285
X328.846Y-356.825
X354.119Y-348.697
X354.119Y-351.237
X354.119Y-353.777
X354.119Y-356.317
X350.182Y-348.697
X350.182Y-351.237
X350.182Y-353.777
X350.182Y-356.317
X299.509Y-349.205
X299.509Y-351.745
X299.509Y-354.285
X299.509Y-356.825
X404.665Y-347.935
X404.665Y-350.475
X404.665Y-353.015
X404.665Y-355.555
X275.125Y-339.045
X275.125Y-341.585
X275.125Y-344.125
X275.125Y-346.665
X275.125Y-349.205
X275.125Y-351.745
X275.125Y-354.285
X275.125Y-356.825
X275.125Y-359.365
X275.125Y-361.905
X275.125Y-364.445
T0
M30
