%TF.GenerationSoftware,KiCad,Pcbnew,5.1.7-a382d34a8~87~ubuntu18.04.1*%
%TF.CreationDate,2020-11-02T19:01:26+01:00*%
%TF.ProjectId,controlled_generator_schematics,636f6e74-726f-46c6-9c65-645f67656e65,rev?*%
%TF.SameCoordinates,Original*%
%TF.FileFunction,Soldermask,Bot*%
%TF.FilePolarity,Negative*%
%FSLAX46Y46*%
G04 Gerber Fmt 4.6, Leading zero omitted, Abs format (unit mm)*
G04 Created by KiCad (PCBNEW 5.1.7-a382d34a8~87~ubuntu18.04.1) date 2020-11-02 19:01:26*
%MOMM*%
%LPD*%
G01*
G04 APERTURE LIST*
%ADD10O,1.600000X1.600000*%
%ADD11R,1.600000X1.600000*%
%ADD12O,1.700000X1.700000*%
%ADD13R,1.700000X1.700000*%
%ADD14R,1.300000X1.300000*%
%ADD15C,1.300000*%
%ADD16O,1.400000X1.400000*%
%ADD17C,1.400000*%
G04 APERTURE END LIST*
D10*
%TO.C,U3*%
X339768001Y-340442001D03*
X332148001Y-363302001D03*
X339768001Y-342982001D03*
X332148001Y-360762001D03*
X339768001Y-345522001D03*
X332148001Y-358222001D03*
X339768001Y-348062001D03*
X332148001Y-355682001D03*
X339768001Y-350602001D03*
X332148001Y-353142001D03*
X339768001Y-353142001D03*
X332148001Y-350602001D03*
X339768001Y-355682001D03*
X332148001Y-348062001D03*
X339768001Y-358222001D03*
X332148001Y-345522001D03*
X339768001Y-360762001D03*
X332148001Y-342982001D03*
X339768001Y-363302001D03*
D11*
X332148001Y-340442001D03*
%TD*%
D12*
%TO.C,J6*%
X303319001Y-356825001D03*
X303319001Y-354285001D03*
X303319001Y-351745001D03*
D13*
X303319001Y-349205001D03*
%TD*%
D14*
%TO.C,Q9*%
X320845001Y-342855001D03*
D15*
X320845001Y-340315001D03*
X319575001Y-341585001D03*
%TD*%
D12*
%TO.C,J10*%
X404665001Y-355555001D03*
X404665001Y-353015001D03*
X404665001Y-350475001D03*
D13*
X404665001Y-347935001D03*
%TD*%
D12*
%TO.C,J9*%
X379646001Y-355809001D03*
X379646001Y-353269001D03*
X379646001Y-350729001D03*
D13*
X379646001Y-348189001D03*
%TD*%
D12*
%TO.C,J8*%
X354119001Y-356317001D03*
X354119001Y-353777001D03*
X354119001Y-351237001D03*
D13*
X354119001Y-348697001D03*
%TD*%
D12*
%TO.C,J7*%
X328846001Y-356825001D03*
X328846001Y-354285001D03*
X328846001Y-351745001D03*
D13*
X328846001Y-349205001D03*
%TD*%
D10*
%TO.C,U1*%
X288830002Y-340315001D03*
X281210002Y-363175001D03*
X288830002Y-342855001D03*
X281210002Y-360635001D03*
X288830002Y-345395001D03*
X281210002Y-358095001D03*
X288830002Y-347935001D03*
X281210002Y-355555001D03*
X288830002Y-350475001D03*
X281210002Y-353015001D03*
X288830002Y-353015001D03*
X281210002Y-350475001D03*
X288830002Y-355555001D03*
X281210002Y-347935001D03*
X288830002Y-358095001D03*
X281210002Y-345395001D03*
X288830002Y-360635001D03*
X281210002Y-342855001D03*
X288830002Y-363175001D03*
D11*
X281210002Y-340315001D03*
%TD*%
D12*
%TO.C,J5*%
X400855001Y-355555001D03*
X400855001Y-353015001D03*
X400855001Y-350475001D03*
D13*
X400855001Y-347935001D03*
%TD*%
D10*
%TO.C,U5*%
X390695001Y-340442001D03*
X383075001Y-363302001D03*
X390695001Y-342982001D03*
X383075001Y-360762001D03*
X390695001Y-345522001D03*
X383075001Y-358222001D03*
X390695001Y-348062001D03*
X383075001Y-355682001D03*
X390695001Y-350602001D03*
X383075001Y-353142001D03*
X390695001Y-353142001D03*
X383075001Y-350602001D03*
X390695001Y-355682001D03*
X383075001Y-348062001D03*
X390695001Y-358222001D03*
X383075001Y-345522001D03*
X390695001Y-360762001D03*
X383075001Y-342982001D03*
X390695001Y-363302001D03*
D11*
X383075001Y-340442001D03*
%TD*%
D10*
%TO.C,U2*%
X314495001Y-340315001D03*
X306875001Y-363175001D03*
X314495001Y-342855001D03*
X306875001Y-360635001D03*
X314495001Y-345395001D03*
X306875001Y-358095001D03*
X314495001Y-347935001D03*
X306875001Y-355555001D03*
X314495001Y-350475001D03*
X306875001Y-353015001D03*
X314495001Y-353015001D03*
X306875001Y-350475001D03*
X314495001Y-355555001D03*
X306875001Y-347935001D03*
X314495001Y-358095001D03*
X306875001Y-345395001D03*
X314495001Y-360635001D03*
X306875001Y-342855001D03*
X314495001Y-363175001D03*
D11*
X306875001Y-340315001D03*
%TD*%
D10*
%TO.C,U4*%
X365549001Y-340442001D03*
X357929001Y-363302001D03*
X365549001Y-342982001D03*
X357929001Y-360762001D03*
X365549001Y-345522001D03*
X357929001Y-358222001D03*
X365549001Y-348062001D03*
X357929001Y-355682001D03*
X365549001Y-350602001D03*
X357929001Y-353142001D03*
X365549001Y-353142001D03*
X357929001Y-350602001D03*
X365549001Y-355682001D03*
X357929001Y-348062001D03*
X365549001Y-358222001D03*
X357929001Y-345522001D03*
X365549001Y-360762001D03*
X357929001Y-342982001D03*
X365549001Y-363302001D03*
D11*
X357929001Y-340442001D03*
%TD*%
D16*
%TO.C,R20*%
X342308001Y-360762001D03*
D17*
X342308001Y-363302001D03*
%TD*%
D16*
%TO.C,R19*%
X342308001Y-354412001D03*
D17*
X342308001Y-356952001D03*
%TD*%
D16*
%TO.C,R18*%
X342308001Y-348062001D03*
D17*
X342308001Y-350602001D03*
%TD*%
D16*
%TO.C,R17*%
X342308001Y-342982001D03*
D17*
X342308001Y-340442001D03*
%TD*%
D16*
%TO.C,R16*%
X393362001Y-363175001D03*
D17*
X393362001Y-360635001D03*
%TD*%
D16*
%TO.C,R15*%
X393235001Y-354285001D03*
D17*
X393235001Y-356825001D03*
%TD*%
%TO.C,R14*%
X393235001Y-350475001D03*
D16*
X393235001Y-347935001D03*
%TD*%
%TO.C,R13*%
X393235001Y-340315001D03*
D17*
X393235001Y-342855001D03*
%TD*%
D16*
%TO.C,R12*%
X317035001Y-360635001D03*
D17*
X317035001Y-363175001D03*
%TD*%
D16*
%TO.C,R11*%
X317035001Y-354285001D03*
D17*
X317035001Y-356825001D03*
%TD*%
D16*
%TO.C,R10*%
X317035001Y-350475001D03*
D17*
X317035001Y-347935001D03*
%TD*%
D16*
%TO.C,R9*%
X317035001Y-342855001D03*
D17*
X317035001Y-340315001D03*
%TD*%
D16*
%TO.C,R8*%
X368216001Y-360635001D03*
D17*
X368216001Y-363175001D03*
%TD*%
D16*
%TO.C,R7*%
X368216001Y-354285001D03*
D17*
X368216001Y-356825001D03*
%TD*%
D16*
%TO.C,R6*%
X368089001Y-348062001D03*
D17*
X368089001Y-350602001D03*
%TD*%
D16*
%TO.C,R5*%
X368216001Y-340442001D03*
D17*
X368216001Y-342982001D03*
%TD*%
D14*
%TO.C,Q20*%
X346118001Y-363302001D03*
D15*
X346118001Y-360762001D03*
X344848001Y-362032001D03*
%TD*%
D14*
%TO.C,Q19*%
X346118001Y-356952001D03*
D15*
X346118001Y-354412001D03*
X344848001Y-355682001D03*
%TD*%
D14*
%TO.C,Q18*%
X346118001Y-350602001D03*
D15*
X346118001Y-348062001D03*
X344848001Y-349332001D03*
%TD*%
D14*
%TO.C,Q17*%
X346118001Y-342982001D03*
D15*
X346118001Y-340442001D03*
X344848001Y-341712001D03*
%TD*%
D14*
%TO.C,Q16*%
X397045001Y-363175001D03*
D15*
X397045001Y-360635001D03*
X395775001Y-361905001D03*
%TD*%
D14*
%TO.C,Q15*%
X397045001Y-356825001D03*
D15*
X397045001Y-354285001D03*
X395775001Y-355555001D03*
%TD*%
D14*
%TO.C,Q14*%
X397045001Y-350475001D03*
D15*
X397045001Y-347935001D03*
X395775001Y-349205001D03*
%TD*%
D14*
%TO.C,Q13*%
X397045001Y-342855001D03*
D15*
X397045001Y-340315001D03*
X395775001Y-341585001D03*
%TD*%
D14*
%TO.C,Q12*%
X320845001Y-363175001D03*
D15*
X320845001Y-360635001D03*
X319575001Y-361905001D03*
%TD*%
D14*
%TO.C,Q11*%
X320845001Y-356825001D03*
D15*
X320845001Y-354285001D03*
X319575001Y-355555001D03*
%TD*%
D14*
%TO.C,Q10*%
X320845001Y-350475001D03*
D15*
X320845001Y-347935001D03*
X319575001Y-349205001D03*
%TD*%
D14*
%TO.C,Q8*%
X371899001Y-363302001D03*
D15*
X371899001Y-360762001D03*
X370629001Y-362032001D03*
%TD*%
D14*
%TO.C,Q7*%
X372026001Y-356698001D03*
D15*
X372026001Y-354158001D03*
X370756001Y-355428001D03*
%TD*%
D14*
%TO.C,Q6*%
X372026001Y-350602001D03*
D15*
X372026001Y-348062001D03*
X370756001Y-349332001D03*
%TD*%
D14*
%TO.C,Q5*%
X372026001Y-343109001D03*
D15*
X372026001Y-340569001D03*
X370756001Y-341839001D03*
%TD*%
D12*
%TO.C,J3*%
X350182001Y-356317001D03*
X350182001Y-353777001D03*
X350182001Y-351237001D03*
D13*
X350182001Y-348697001D03*
%TD*%
D12*
%TO.C,J2*%
X324909001Y-356825001D03*
X324909001Y-354285001D03*
X324909001Y-351745001D03*
D13*
X324909001Y-349205001D03*
%TD*%
D12*
%TO.C,J4*%
X375836001Y-355809001D03*
X375836001Y-353269001D03*
X375836001Y-350729001D03*
D13*
X375836001Y-348189001D03*
%TD*%
D16*
%TO.C,R4*%
X291635001Y-360635001D03*
D17*
X291635001Y-363175001D03*
%TD*%
D16*
%TO.C,R3*%
X291635001Y-354285001D03*
D17*
X291635001Y-356825001D03*
%TD*%
D16*
%TO.C,R2*%
X291635001Y-347935001D03*
D17*
X291635001Y-350475001D03*
%TD*%
D16*
%TO.C,R1*%
X291635001Y-340315001D03*
D17*
X291635001Y-342855001D03*
%TD*%
D14*
%TO.C,Q4*%
X295445001Y-363175001D03*
D15*
X295445001Y-360635001D03*
X294175001Y-361905001D03*
%TD*%
D14*
%TO.C,Q3*%
X295445001Y-356825001D03*
D15*
X295445001Y-354285001D03*
X294175001Y-355555001D03*
%TD*%
D14*
%TO.C,Q2*%
X295445001Y-350475001D03*
D15*
X295445001Y-347935001D03*
X294175001Y-349205001D03*
%TD*%
D14*
%TO.C,Q1*%
X295445001Y-342855001D03*
D15*
X295445001Y-340315001D03*
X294175001Y-341585001D03*
%TD*%
D12*
%TO.C,J1*%
X299509001Y-356825001D03*
X299509001Y-354285001D03*
X299509001Y-351745001D03*
D13*
X299509001Y-349205001D03*
%TD*%
D12*
%TO.C,J0*%
X275125001Y-364445001D03*
X275125001Y-361905001D03*
X275125001Y-359365001D03*
X275125001Y-356825001D03*
X275125001Y-354285001D03*
X275125001Y-351745001D03*
X275125001Y-349205001D03*
X275125001Y-346665001D03*
X275125001Y-344125001D03*
X275125001Y-341585001D03*
D13*
X275125001Y-339045001D03*
%TD*%
M02*
