%TF.GenerationSoftware,KiCad,Pcbnew,5.1.7-a382d34a8~87~ubuntu18.04.1*%
%TF.CreationDate,2020-11-02T19:01:26+01:00*%
%TF.ProjectId,controlled_generator_schematics,636f6e74-726f-46c6-9c65-645f67656e65,rev?*%
%TF.SameCoordinates,Original*%
%TF.FileFunction,Legend,Top*%
%TF.FilePolarity,Positive*%
%FSLAX46Y46*%
G04 Gerber Fmt 4.6, Leading zero omitted, Abs format (unit mm)*
G04 Created by KiCad (PCBNEW 5.1.7-a382d34a8~87~ubuntu18.04.1) date 2020-11-02 19:01:26*
%MOMM*%
%LPD*%
G01*
G04 APERTURE LIST*
%ADD10C,0.120000*%
%ADD11C,0.150000*%
G04 APERTURE END LIST*
D10*
%TO.C,U3*%
X341098001Y-339052001D02*
X330818001Y-339052001D01*
X341098001Y-364692001D02*
X341098001Y-339052001D01*
X330818001Y-364692001D02*
X341098001Y-364692001D01*
X330818001Y-339052001D02*
X330818001Y-364692001D01*
X338608001Y-339112001D02*
X336958001Y-339112001D01*
X338608001Y-364632001D02*
X338608001Y-339112001D01*
X333308001Y-364632001D02*
X338608001Y-364632001D01*
X333308001Y-339112001D02*
X333308001Y-364632001D01*
X334958001Y-339112001D02*
X333308001Y-339112001D01*
X336958001Y-339112001D02*
G75*
G02*
X334958001Y-339112001I-1000000J0D01*
G01*
%TO.C,J6*%
X301989001Y-347875001D02*
X303319001Y-347875001D01*
X301989001Y-349205001D02*
X301989001Y-347875001D01*
X301989001Y-350475001D02*
X304649001Y-350475001D01*
X304649001Y-350475001D02*
X304649001Y-358155001D01*
X301989001Y-350475001D02*
X301989001Y-358155001D01*
X301989001Y-358155001D02*
X304649001Y-358155001D01*
%TO.C,Q9*%
X322695001Y-343385001D02*
X322695001Y-339785001D01*
X322683479Y-339746523D02*
G75*
G03*
X318245001Y-341585001I-1838478J-1838478D01*
G01*
X322683479Y-343423479D02*
G75*
G02*
X318245001Y-341585001I-1838478J1838478D01*
G01*
%TO.C,J10*%
X403335001Y-346605001D02*
X404665001Y-346605001D01*
X403335001Y-347935001D02*
X403335001Y-346605001D01*
X403335001Y-349205001D02*
X405995001Y-349205001D01*
X405995001Y-349205001D02*
X405995001Y-356885001D01*
X403335001Y-349205001D02*
X403335001Y-356885001D01*
X403335001Y-356885001D02*
X405995001Y-356885001D01*
%TO.C,J9*%
X378316001Y-346859001D02*
X379646001Y-346859001D01*
X378316001Y-348189001D02*
X378316001Y-346859001D01*
X378316001Y-349459001D02*
X380976001Y-349459001D01*
X380976001Y-349459001D02*
X380976001Y-357139001D01*
X378316001Y-349459001D02*
X378316001Y-357139001D01*
X378316001Y-357139001D02*
X380976001Y-357139001D01*
%TO.C,J8*%
X352789001Y-347367001D02*
X354119001Y-347367001D01*
X352789001Y-348697001D02*
X352789001Y-347367001D01*
X352789001Y-349967001D02*
X355449001Y-349967001D01*
X355449001Y-349967001D02*
X355449001Y-357647001D01*
X352789001Y-349967001D02*
X352789001Y-357647001D01*
X352789001Y-357647001D02*
X355449001Y-357647001D01*
%TO.C,J7*%
X327516001Y-347875001D02*
X328846001Y-347875001D01*
X327516001Y-349205001D02*
X327516001Y-347875001D01*
X327516001Y-350475001D02*
X330176001Y-350475001D01*
X330176001Y-350475001D02*
X330176001Y-358155001D01*
X327516001Y-350475001D02*
X327516001Y-358155001D01*
X327516001Y-358155001D02*
X330176001Y-358155001D01*
%TO.C,U1*%
X290160002Y-338925001D02*
X279880002Y-338925001D01*
X290160002Y-364565001D02*
X290160002Y-338925001D01*
X279880002Y-364565001D02*
X290160002Y-364565001D01*
X279880002Y-338925001D02*
X279880002Y-364565001D01*
X287670002Y-338985001D02*
X286020002Y-338985001D01*
X287670002Y-364505001D02*
X287670002Y-338985001D01*
X282370002Y-364505001D02*
X287670002Y-364505001D01*
X282370002Y-338985001D02*
X282370002Y-364505001D01*
X284020002Y-338985001D02*
X282370002Y-338985001D01*
X286020002Y-338985001D02*
G75*
G02*
X284020002Y-338985001I-1000000J0D01*
G01*
%TO.C,J5*%
X399525001Y-346605001D02*
X400855001Y-346605001D01*
X399525001Y-347935001D02*
X399525001Y-346605001D01*
X399525001Y-349205001D02*
X402185001Y-349205001D01*
X402185001Y-349205001D02*
X402185001Y-356885001D01*
X399525001Y-349205001D02*
X399525001Y-356885001D01*
X399525001Y-356885001D02*
X402185001Y-356885001D01*
%TO.C,U5*%
X392025001Y-339052001D02*
X381745001Y-339052001D01*
X392025001Y-364692001D02*
X392025001Y-339052001D01*
X381745001Y-364692001D02*
X392025001Y-364692001D01*
X381745001Y-339052001D02*
X381745001Y-364692001D01*
X389535001Y-339112001D02*
X387885001Y-339112001D01*
X389535001Y-364632001D02*
X389535001Y-339112001D01*
X384235001Y-364632001D02*
X389535001Y-364632001D01*
X384235001Y-339112001D02*
X384235001Y-364632001D01*
X385885001Y-339112001D02*
X384235001Y-339112001D01*
X387885001Y-339112001D02*
G75*
G02*
X385885001Y-339112001I-1000000J0D01*
G01*
%TO.C,U2*%
X315825001Y-338925001D02*
X305545001Y-338925001D01*
X315825001Y-364565001D02*
X315825001Y-338925001D01*
X305545001Y-364565001D02*
X315825001Y-364565001D01*
X305545001Y-338925001D02*
X305545001Y-364565001D01*
X313335001Y-338985001D02*
X311685001Y-338985001D01*
X313335001Y-364505001D02*
X313335001Y-338985001D01*
X308035001Y-364505001D02*
X313335001Y-364505001D01*
X308035001Y-338985001D02*
X308035001Y-364505001D01*
X309685001Y-338985001D02*
X308035001Y-338985001D01*
X311685001Y-338985001D02*
G75*
G02*
X309685001Y-338985001I-1000000J0D01*
G01*
%TO.C,U4*%
X366879001Y-339052001D02*
X356599001Y-339052001D01*
X366879001Y-364692001D02*
X366879001Y-339052001D01*
X356599001Y-364692001D02*
X366879001Y-364692001D01*
X356599001Y-339052001D02*
X356599001Y-364692001D01*
X364389001Y-339112001D02*
X362739001Y-339112001D01*
X364389001Y-364632001D02*
X364389001Y-339112001D01*
X359089001Y-364632001D02*
X364389001Y-364632001D01*
X359089001Y-339112001D02*
X359089001Y-364632001D01*
X360739001Y-339112001D02*
X359089001Y-339112001D01*
X362739001Y-339112001D02*
G75*
G02*
X360739001Y-339112001I-1000000J0D01*
G01*
%TO.C,R20*%
X342308001Y-362382001D02*
X342308001Y-361762001D01*
X343228001Y-363302001D02*
G75*
G03*
X343228001Y-363302001I-920000J0D01*
G01*
%TO.C,R19*%
X342308001Y-356032001D02*
X342308001Y-355412001D01*
X343228001Y-356952001D02*
G75*
G03*
X343228001Y-356952001I-920000J0D01*
G01*
%TO.C,R18*%
X342308001Y-349682001D02*
X342308001Y-349062001D01*
X343228001Y-350602001D02*
G75*
G03*
X343228001Y-350602001I-920000J0D01*
G01*
%TO.C,R17*%
X342308001Y-341362001D02*
X342308001Y-341982001D01*
X343228001Y-340442001D02*
G75*
G03*
X343228001Y-340442001I-920000J0D01*
G01*
%TO.C,R16*%
X393362001Y-361555001D02*
X393362001Y-362175001D01*
X394282001Y-360635001D02*
G75*
G03*
X394282001Y-360635001I-920000J0D01*
G01*
%TO.C,R15*%
X393235001Y-355905001D02*
X393235001Y-355285001D01*
X394155001Y-356825001D02*
G75*
G03*
X394155001Y-356825001I-920000J0D01*
G01*
%TO.C,R14*%
X394155001Y-350475001D02*
G75*
G03*
X394155001Y-350475001I-920000J0D01*
G01*
X393235001Y-349555001D02*
X393235001Y-348935001D01*
%TO.C,R13*%
X393235001Y-341935001D02*
X393235001Y-341315001D01*
X394155001Y-342855001D02*
G75*
G03*
X394155001Y-342855001I-920000J0D01*
G01*
%TO.C,R12*%
X317035001Y-362255001D02*
X317035001Y-361635001D01*
X317955001Y-363175001D02*
G75*
G03*
X317955001Y-363175001I-920000J0D01*
G01*
%TO.C,R11*%
X317035001Y-355905001D02*
X317035001Y-355285001D01*
X317955001Y-356825001D02*
G75*
G03*
X317955001Y-356825001I-920000J0D01*
G01*
%TO.C,R10*%
X317035001Y-348855001D02*
X317035001Y-349475001D01*
X317955001Y-347935001D02*
G75*
G03*
X317955001Y-347935001I-920000J0D01*
G01*
%TO.C,R9*%
X317035001Y-341235001D02*
X317035001Y-341855001D01*
X317955001Y-340315001D02*
G75*
G03*
X317955001Y-340315001I-920000J0D01*
G01*
%TO.C,R8*%
X368216001Y-362255001D02*
X368216001Y-361635001D01*
X369136001Y-363175001D02*
G75*
G03*
X369136001Y-363175001I-920000J0D01*
G01*
%TO.C,R7*%
X368216001Y-355905001D02*
X368216001Y-355285001D01*
X369136001Y-356825001D02*
G75*
G03*
X369136001Y-356825001I-920000J0D01*
G01*
%TO.C,R6*%
X368089001Y-349682001D02*
X368089001Y-349062001D01*
X369009001Y-350602001D02*
G75*
G03*
X369009001Y-350602001I-920000J0D01*
G01*
%TO.C,R5*%
X368216001Y-342062001D02*
X368216001Y-341442001D01*
X369136001Y-342982001D02*
G75*
G03*
X369136001Y-342982001I-920000J0D01*
G01*
%TO.C,Q20*%
X347968001Y-363832001D02*
X347968001Y-360232001D01*
X347956479Y-360193523D02*
G75*
G03*
X343518001Y-362032001I-1838478J-1838478D01*
G01*
X347956479Y-363870479D02*
G75*
G02*
X343518001Y-362032001I-1838478J1838478D01*
G01*
%TO.C,Q19*%
X347968001Y-357482001D02*
X347968001Y-353882001D01*
X347956479Y-353843523D02*
G75*
G03*
X343518001Y-355682001I-1838478J-1838478D01*
G01*
X347956479Y-357520479D02*
G75*
G02*
X343518001Y-355682001I-1838478J1838478D01*
G01*
%TO.C,Q18*%
X347968001Y-351132001D02*
X347968001Y-347532001D01*
X347956479Y-347493523D02*
G75*
G03*
X343518001Y-349332001I-1838478J-1838478D01*
G01*
X347956479Y-351170479D02*
G75*
G02*
X343518001Y-349332001I-1838478J1838478D01*
G01*
%TO.C,Q17*%
X347968001Y-343512001D02*
X347968001Y-339912001D01*
X347956479Y-339873523D02*
G75*
G03*
X343518001Y-341712001I-1838478J-1838478D01*
G01*
X347956479Y-343550479D02*
G75*
G02*
X343518001Y-341712001I-1838478J1838478D01*
G01*
%TO.C,Q16*%
X398895001Y-363705001D02*
X398895001Y-360105001D01*
X398883479Y-360066523D02*
G75*
G03*
X394445001Y-361905001I-1838478J-1838478D01*
G01*
X398883479Y-363743479D02*
G75*
G02*
X394445001Y-361905001I-1838478J1838478D01*
G01*
%TO.C,Q15*%
X398895001Y-357355001D02*
X398895001Y-353755001D01*
X398883479Y-353716523D02*
G75*
G03*
X394445001Y-355555001I-1838478J-1838478D01*
G01*
X398883479Y-357393479D02*
G75*
G02*
X394445001Y-355555001I-1838478J1838478D01*
G01*
%TO.C,Q14*%
X398895001Y-351005001D02*
X398895001Y-347405001D01*
X398883479Y-347366523D02*
G75*
G03*
X394445001Y-349205001I-1838478J-1838478D01*
G01*
X398883479Y-351043479D02*
G75*
G02*
X394445001Y-349205001I-1838478J1838478D01*
G01*
%TO.C,Q13*%
X398895001Y-343385001D02*
X398895001Y-339785001D01*
X398883479Y-339746523D02*
G75*
G03*
X394445001Y-341585001I-1838478J-1838478D01*
G01*
X398883479Y-343423479D02*
G75*
G02*
X394445001Y-341585001I-1838478J1838478D01*
G01*
%TO.C,Q12*%
X322695001Y-363705001D02*
X322695001Y-360105001D01*
X322683479Y-360066523D02*
G75*
G03*
X318245001Y-361905001I-1838478J-1838478D01*
G01*
X322683479Y-363743479D02*
G75*
G02*
X318245001Y-361905001I-1838478J1838478D01*
G01*
%TO.C,Q11*%
X322695001Y-357355001D02*
X322695001Y-353755001D01*
X322683479Y-353716523D02*
G75*
G03*
X318245001Y-355555001I-1838478J-1838478D01*
G01*
X322683479Y-357393479D02*
G75*
G02*
X318245001Y-355555001I-1838478J1838478D01*
G01*
%TO.C,Q10*%
X322695001Y-351005001D02*
X322695001Y-347405001D01*
X322683479Y-347366523D02*
G75*
G03*
X318245001Y-349205001I-1838478J-1838478D01*
G01*
X322683479Y-351043479D02*
G75*
G02*
X318245001Y-349205001I-1838478J1838478D01*
G01*
%TO.C,Q8*%
X373749001Y-363832001D02*
X373749001Y-360232001D01*
X373737479Y-360193523D02*
G75*
G03*
X369299001Y-362032001I-1838478J-1838478D01*
G01*
X373737479Y-363870479D02*
G75*
G02*
X369299001Y-362032001I-1838478J1838478D01*
G01*
%TO.C,Q7*%
X373876001Y-357228001D02*
X373876001Y-353628001D01*
X373864479Y-353589523D02*
G75*
G03*
X369426001Y-355428001I-1838478J-1838478D01*
G01*
X373864479Y-357266479D02*
G75*
G02*
X369426001Y-355428001I-1838478J1838478D01*
G01*
%TO.C,Q6*%
X373876001Y-351132001D02*
X373876001Y-347532001D01*
X373864479Y-347493523D02*
G75*
G03*
X369426001Y-349332001I-1838478J-1838478D01*
G01*
X373864479Y-351170479D02*
G75*
G02*
X369426001Y-349332001I-1838478J1838478D01*
G01*
%TO.C,Q5*%
X373876001Y-343639001D02*
X373876001Y-340039001D01*
X373864479Y-340000523D02*
G75*
G03*
X369426001Y-341839001I-1838478J-1838478D01*
G01*
X373864479Y-343677479D02*
G75*
G02*
X369426001Y-341839001I-1838478J1838478D01*
G01*
%TO.C,J3*%
X348852001Y-347367001D02*
X350182001Y-347367001D01*
X348852001Y-348697001D02*
X348852001Y-347367001D01*
X348852001Y-349967001D02*
X351512001Y-349967001D01*
X351512001Y-349967001D02*
X351512001Y-357647001D01*
X348852001Y-349967001D02*
X348852001Y-357647001D01*
X348852001Y-357647001D02*
X351512001Y-357647001D01*
%TO.C,J2*%
X323579001Y-347875001D02*
X324909001Y-347875001D01*
X323579001Y-349205001D02*
X323579001Y-347875001D01*
X323579001Y-350475001D02*
X326239001Y-350475001D01*
X326239001Y-350475001D02*
X326239001Y-358155001D01*
X323579001Y-350475001D02*
X323579001Y-358155001D01*
X323579001Y-358155001D02*
X326239001Y-358155001D01*
%TO.C,J4*%
X374506001Y-346859001D02*
X375836001Y-346859001D01*
X374506001Y-348189001D02*
X374506001Y-346859001D01*
X374506001Y-349459001D02*
X377166001Y-349459001D01*
X377166001Y-349459001D02*
X377166001Y-357139001D01*
X374506001Y-349459001D02*
X374506001Y-357139001D01*
X374506001Y-357139001D02*
X377166001Y-357139001D01*
%TO.C,R4*%
X291635001Y-362255001D02*
X291635001Y-361635001D01*
X292555001Y-363175001D02*
G75*
G03*
X292555001Y-363175001I-920000J0D01*
G01*
%TO.C,R3*%
X291635001Y-355905001D02*
X291635001Y-355285001D01*
X292555001Y-356825001D02*
G75*
G03*
X292555001Y-356825001I-920000J0D01*
G01*
%TO.C,R2*%
X291635001Y-349555001D02*
X291635001Y-348935001D01*
X292555001Y-350475001D02*
G75*
G03*
X292555001Y-350475001I-920000J0D01*
G01*
%TO.C,R1*%
X291635001Y-341935001D02*
X291635001Y-341315001D01*
X292555001Y-342855001D02*
G75*
G03*
X292555001Y-342855001I-920000J0D01*
G01*
%TO.C,Q4*%
X297295001Y-363705001D02*
X297295001Y-360105001D01*
X297283479Y-360066523D02*
G75*
G03*
X292845001Y-361905001I-1838478J-1838478D01*
G01*
X297283479Y-363743479D02*
G75*
G02*
X292845001Y-361905001I-1838478J1838478D01*
G01*
%TO.C,Q3*%
X297295001Y-357355001D02*
X297295001Y-353755001D01*
X297283479Y-353716523D02*
G75*
G03*
X292845001Y-355555001I-1838478J-1838478D01*
G01*
X297283479Y-357393479D02*
G75*
G02*
X292845001Y-355555001I-1838478J1838478D01*
G01*
%TO.C,Q2*%
X297295001Y-351005001D02*
X297295001Y-347405001D01*
X297283479Y-347366523D02*
G75*
G03*
X292845001Y-349205001I-1838478J-1838478D01*
G01*
X297283479Y-351043479D02*
G75*
G02*
X292845001Y-349205001I-1838478J1838478D01*
G01*
%TO.C,Q1*%
X297295001Y-343385001D02*
X297295001Y-339785001D01*
X297283479Y-339746523D02*
G75*
G03*
X292845001Y-341585001I-1838478J-1838478D01*
G01*
X297283479Y-343423479D02*
G75*
G02*
X292845001Y-341585001I-1838478J1838478D01*
G01*
%TO.C,J1*%
X298179001Y-347875001D02*
X299509001Y-347875001D01*
X298179001Y-349205001D02*
X298179001Y-347875001D01*
X298179001Y-350475001D02*
X300839001Y-350475001D01*
X300839001Y-350475001D02*
X300839001Y-358155001D01*
X298179001Y-350475001D02*
X298179001Y-358155001D01*
X298179001Y-358155001D02*
X300839001Y-358155001D01*
%TO.C,U3*%
D11*
X335196096Y-337564381D02*
X335196096Y-338373905D01*
X335243715Y-338469143D01*
X335291334Y-338516762D01*
X335386572Y-338564381D01*
X335577048Y-338564381D01*
X335672286Y-338516762D01*
X335719905Y-338469143D01*
X335767524Y-338373905D01*
X335767524Y-337564381D01*
X336148477Y-337564381D02*
X336767524Y-337564381D01*
X336434191Y-337945334D01*
X336577048Y-337945334D01*
X336672286Y-337992953D01*
X336719905Y-338040572D01*
X336767524Y-338135810D01*
X336767524Y-338373905D01*
X336719905Y-338469143D01*
X336672286Y-338516762D01*
X336577048Y-338564381D01*
X336291334Y-338564381D01*
X336196096Y-338516762D01*
X336148477Y-338469143D01*
%TO.C,J6*%
X302985667Y-346327381D02*
X302985667Y-347041667D01*
X302938048Y-347184524D01*
X302842810Y-347279762D01*
X302699953Y-347327381D01*
X302604715Y-347327381D01*
X303890429Y-346327381D02*
X303699953Y-346327381D01*
X303604715Y-346375001D01*
X303557096Y-346422620D01*
X303461858Y-346565477D01*
X303414239Y-346755953D01*
X303414239Y-347136905D01*
X303461858Y-347232143D01*
X303509477Y-347279762D01*
X303604715Y-347327381D01*
X303795191Y-347327381D01*
X303890429Y-347279762D01*
X303938048Y-347232143D01*
X303985667Y-347136905D01*
X303985667Y-346898810D01*
X303938048Y-346803572D01*
X303890429Y-346755953D01*
X303795191Y-346708334D01*
X303604715Y-346708334D01*
X303509477Y-346755953D01*
X303461858Y-346803572D01*
X303414239Y-346898810D01*
%TO.C,Q9*%
X317832620Y-341680239D02*
X317785001Y-341775477D01*
X317689762Y-341870715D01*
X317546905Y-342013572D01*
X317499286Y-342108810D01*
X317499286Y-342204048D01*
X317737381Y-342156429D02*
X317689762Y-342251667D01*
X317594524Y-342346905D01*
X317404048Y-342394524D01*
X317070715Y-342394524D01*
X316880239Y-342346905D01*
X316785001Y-342251667D01*
X316737381Y-342156429D01*
X316737381Y-341965953D01*
X316785001Y-341870715D01*
X316880239Y-341775477D01*
X317070715Y-341727858D01*
X317404048Y-341727858D01*
X317594524Y-341775477D01*
X317689762Y-341870715D01*
X317737381Y-341965953D01*
X317737381Y-342156429D01*
X317737381Y-341251667D02*
X317737381Y-341061191D01*
X317689762Y-340965953D01*
X317642143Y-340918334D01*
X317499286Y-340823096D01*
X317308810Y-340775477D01*
X316927858Y-340775477D01*
X316832620Y-340823096D01*
X316785001Y-340870715D01*
X316737381Y-340965953D01*
X316737381Y-341156429D01*
X316785001Y-341251667D01*
X316832620Y-341299286D01*
X316927858Y-341346905D01*
X317165953Y-341346905D01*
X317261191Y-341299286D01*
X317308810Y-341251667D01*
X317356429Y-341156429D01*
X317356429Y-340965953D01*
X317308810Y-340870715D01*
X317261191Y-340823096D01*
X317165953Y-340775477D01*
%TO.C,J10*%
X403855477Y-345057381D02*
X403855477Y-345771667D01*
X403807858Y-345914524D01*
X403712620Y-346009762D01*
X403569762Y-346057381D01*
X403474524Y-346057381D01*
X404855477Y-346057381D02*
X404284048Y-346057381D01*
X404569762Y-346057381D02*
X404569762Y-345057381D01*
X404474524Y-345200239D01*
X404379286Y-345295477D01*
X404284048Y-345343096D01*
X405474524Y-345057381D02*
X405569762Y-345057381D01*
X405665001Y-345105001D01*
X405712620Y-345152620D01*
X405760239Y-345247858D01*
X405807858Y-345438334D01*
X405807858Y-345676429D01*
X405760239Y-345866905D01*
X405712620Y-345962143D01*
X405665001Y-346009762D01*
X405569762Y-346057381D01*
X405474524Y-346057381D01*
X405379286Y-346009762D01*
X405331667Y-345962143D01*
X405284048Y-345866905D01*
X405236429Y-345676429D01*
X405236429Y-345438334D01*
X405284048Y-345247858D01*
X405331667Y-345152620D01*
X405379286Y-345105001D01*
X405474524Y-345057381D01*
%TO.C,J9*%
X379312667Y-345311381D02*
X379312667Y-346025667D01*
X379265048Y-346168524D01*
X379169810Y-346263762D01*
X379026953Y-346311381D01*
X378931715Y-346311381D01*
X379836477Y-346311381D02*
X380026953Y-346311381D01*
X380122191Y-346263762D01*
X380169810Y-346216143D01*
X380265048Y-346073286D01*
X380312667Y-345882810D01*
X380312667Y-345501858D01*
X380265048Y-345406620D01*
X380217429Y-345359001D01*
X380122191Y-345311381D01*
X379931715Y-345311381D01*
X379836477Y-345359001D01*
X379788858Y-345406620D01*
X379741239Y-345501858D01*
X379741239Y-345739953D01*
X379788858Y-345835191D01*
X379836477Y-345882810D01*
X379931715Y-345930429D01*
X380122191Y-345930429D01*
X380217429Y-345882810D01*
X380265048Y-345835191D01*
X380312667Y-345739953D01*
%TO.C,J8*%
X353785667Y-345819381D02*
X353785667Y-346533667D01*
X353738048Y-346676524D01*
X353642810Y-346771762D01*
X353499953Y-346819381D01*
X353404715Y-346819381D01*
X354404715Y-346247953D02*
X354309477Y-346200334D01*
X354261858Y-346152715D01*
X354214239Y-346057477D01*
X354214239Y-346009858D01*
X354261858Y-345914620D01*
X354309477Y-345867001D01*
X354404715Y-345819381D01*
X354595191Y-345819381D01*
X354690429Y-345867001D01*
X354738048Y-345914620D01*
X354785667Y-346009858D01*
X354785667Y-346057477D01*
X354738048Y-346152715D01*
X354690429Y-346200334D01*
X354595191Y-346247953D01*
X354404715Y-346247953D01*
X354309477Y-346295572D01*
X354261858Y-346343191D01*
X354214239Y-346438429D01*
X354214239Y-346628905D01*
X354261858Y-346724143D01*
X354309477Y-346771762D01*
X354404715Y-346819381D01*
X354595191Y-346819381D01*
X354690429Y-346771762D01*
X354738048Y-346724143D01*
X354785667Y-346628905D01*
X354785667Y-346438429D01*
X354738048Y-346343191D01*
X354690429Y-346295572D01*
X354595191Y-346247953D01*
%TO.C,J7*%
X328512667Y-346327381D02*
X328512667Y-347041667D01*
X328465048Y-347184524D01*
X328369810Y-347279762D01*
X328226953Y-347327381D01*
X328131715Y-347327381D01*
X328893620Y-346327381D02*
X329560286Y-346327381D01*
X329131715Y-347327381D01*
%TO.C,U1*%
X284258097Y-337437381D02*
X284258097Y-338246905D01*
X284305716Y-338342143D01*
X284353335Y-338389762D01*
X284448573Y-338437381D01*
X284639049Y-338437381D01*
X284734287Y-338389762D01*
X284781906Y-338342143D01*
X284829525Y-338246905D01*
X284829525Y-337437381D01*
X285829525Y-338437381D02*
X285258097Y-338437381D01*
X285543811Y-338437381D02*
X285543811Y-337437381D01*
X285448573Y-337580239D01*
X285353335Y-337675477D01*
X285258097Y-337723096D01*
%TO.C,J5*%
X400521667Y-345057381D02*
X400521667Y-345771667D01*
X400474048Y-345914524D01*
X400378810Y-346009762D01*
X400235953Y-346057381D01*
X400140715Y-346057381D01*
X401474048Y-345057381D02*
X400997858Y-345057381D01*
X400950239Y-345533572D01*
X400997858Y-345485953D01*
X401093096Y-345438334D01*
X401331191Y-345438334D01*
X401426429Y-345485953D01*
X401474048Y-345533572D01*
X401521667Y-345628810D01*
X401521667Y-345866905D01*
X401474048Y-345962143D01*
X401426429Y-346009762D01*
X401331191Y-346057381D01*
X401093096Y-346057381D01*
X400997858Y-346009762D01*
X400950239Y-345962143D01*
%TO.C,U5*%
X386123096Y-337564381D02*
X386123096Y-338373905D01*
X386170715Y-338469143D01*
X386218334Y-338516762D01*
X386313572Y-338564381D01*
X386504048Y-338564381D01*
X386599286Y-338516762D01*
X386646905Y-338469143D01*
X386694524Y-338373905D01*
X386694524Y-337564381D01*
X387646905Y-337564381D02*
X387170715Y-337564381D01*
X387123096Y-338040572D01*
X387170715Y-337992953D01*
X387265953Y-337945334D01*
X387504048Y-337945334D01*
X387599286Y-337992953D01*
X387646905Y-338040572D01*
X387694524Y-338135810D01*
X387694524Y-338373905D01*
X387646905Y-338469143D01*
X387599286Y-338516762D01*
X387504048Y-338564381D01*
X387265953Y-338564381D01*
X387170715Y-338516762D01*
X387123096Y-338469143D01*
%TO.C,U2*%
X309923096Y-337437381D02*
X309923096Y-338246905D01*
X309970715Y-338342143D01*
X310018334Y-338389762D01*
X310113572Y-338437381D01*
X310304048Y-338437381D01*
X310399286Y-338389762D01*
X310446905Y-338342143D01*
X310494524Y-338246905D01*
X310494524Y-337437381D01*
X310923096Y-337532620D02*
X310970715Y-337485001D01*
X311065953Y-337437381D01*
X311304048Y-337437381D01*
X311399286Y-337485001D01*
X311446905Y-337532620D01*
X311494524Y-337627858D01*
X311494524Y-337723096D01*
X311446905Y-337865953D01*
X310875477Y-338437381D01*
X311494524Y-338437381D01*
%TO.C,U4*%
X360977096Y-337564381D02*
X360977096Y-338373905D01*
X361024715Y-338469143D01*
X361072334Y-338516762D01*
X361167572Y-338564381D01*
X361358048Y-338564381D01*
X361453286Y-338516762D01*
X361500905Y-338469143D01*
X361548524Y-338373905D01*
X361548524Y-337564381D01*
X362453286Y-337897715D02*
X362453286Y-338564381D01*
X362215191Y-337516762D02*
X361977096Y-338231048D01*
X362596143Y-338231048D01*
%TO.C,R20*%
X340840381Y-362674858D02*
X340364191Y-363008191D01*
X340840381Y-363246286D02*
X339840381Y-363246286D01*
X339840381Y-362865334D01*
X339888001Y-362770096D01*
X339935620Y-362722477D01*
X340030858Y-362674858D01*
X340173715Y-362674858D01*
X340268953Y-362722477D01*
X340316572Y-362770096D01*
X340364191Y-362865334D01*
X340364191Y-363246286D01*
X339935620Y-362293905D02*
X339888001Y-362246286D01*
X339840381Y-362151048D01*
X339840381Y-361912953D01*
X339888001Y-361817715D01*
X339935620Y-361770096D01*
X340030858Y-361722477D01*
X340126096Y-361722477D01*
X340268953Y-361770096D01*
X340840381Y-362341524D01*
X340840381Y-361722477D01*
X339840381Y-361103429D02*
X339840381Y-361008191D01*
X339888001Y-360912953D01*
X339935620Y-360865334D01*
X340030858Y-360817715D01*
X340221334Y-360770096D01*
X340459429Y-360770096D01*
X340649905Y-360817715D01*
X340745143Y-360865334D01*
X340792762Y-360912953D01*
X340840381Y-361008191D01*
X340840381Y-361103429D01*
X340792762Y-361198667D01*
X340745143Y-361246286D01*
X340649905Y-361293905D01*
X340459429Y-361341524D01*
X340221334Y-361341524D01*
X340030858Y-361293905D01*
X339935620Y-361246286D01*
X339888001Y-361198667D01*
X339840381Y-361103429D01*
%TO.C,R19*%
X340840381Y-356324858D02*
X340364191Y-356658191D01*
X340840381Y-356896286D02*
X339840381Y-356896286D01*
X339840381Y-356515334D01*
X339888001Y-356420096D01*
X339935620Y-356372477D01*
X340030858Y-356324858D01*
X340173715Y-356324858D01*
X340268953Y-356372477D01*
X340316572Y-356420096D01*
X340364191Y-356515334D01*
X340364191Y-356896286D01*
X340840381Y-355372477D02*
X340840381Y-355943905D01*
X340840381Y-355658191D02*
X339840381Y-355658191D01*
X339983239Y-355753429D01*
X340078477Y-355848667D01*
X340126096Y-355943905D01*
X340840381Y-354896286D02*
X340840381Y-354705810D01*
X340792762Y-354610572D01*
X340745143Y-354562953D01*
X340602286Y-354467715D01*
X340411810Y-354420096D01*
X340030858Y-354420096D01*
X339935620Y-354467715D01*
X339888001Y-354515334D01*
X339840381Y-354610572D01*
X339840381Y-354801048D01*
X339888001Y-354896286D01*
X339935620Y-354943905D01*
X340030858Y-354991524D01*
X340268953Y-354991524D01*
X340364191Y-354943905D01*
X340411810Y-354896286D01*
X340459429Y-354801048D01*
X340459429Y-354610572D01*
X340411810Y-354515334D01*
X340364191Y-354467715D01*
X340268953Y-354420096D01*
%TO.C,R18*%
X340840381Y-349974858D02*
X340364191Y-350308191D01*
X340840381Y-350546286D02*
X339840381Y-350546286D01*
X339840381Y-350165334D01*
X339888001Y-350070096D01*
X339935620Y-350022477D01*
X340030858Y-349974858D01*
X340173715Y-349974858D01*
X340268953Y-350022477D01*
X340316572Y-350070096D01*
X340364191Y-350165334D01*
X340364191Y-350546286D01*
X340840381Y-349022477D02*
X340840381Y-349593905D01*
X340840381Y-349308191D02*
X339840381Y-349308191D01*
X339983239Y-349403429D01*
X340078477Y-349498667D01*
X340126096Y-349593905D01*
X340268953Y-348451048D02*
X340221334Y-348546286D01*
X340173715Y-348593905D01*
X340078477Y-348641524D01*
X340030858Y-348641524D01*
X339935620Y-348593905D01*
X339888001Y-348546286D01*
X339840381Y-348451048D01*
X339840381Y-348260572D01*
X339888001Y-348165334D01*
X339935620Y-348117715D01*
X340030858Y-348070096D01*
X340078477Y-348070096D01*
X340173715Y-348117715D01*
X340221334Y-348165334D01*
X340268953Y-348260572D01*
X340268953Y-348451048D01*
X340316572Y-348546286D01*
X340364191Y-348593905D01*
X340459429Y-348641524D01*
X340649905Y-348641524D01*
X340745143Y-348593905D01*
X340792762Y-348546286D01*
X340840381Y-348451048D01*
X340840381Y-348260572D01*
X340792762Y-348165334D01*
X340745143Y-348117715D01*
X340649905Y-348070096D01*
X340459429Y-348070096D01*
X340364191Y-348117715D01*
X340316572Y-348165334D01*
X340268953Y-348260572D01*
%TO.C,R17*%
X344680381Y-342354858D02*
X344204191Y-342688191D01*
X344680381Y-342926286D02*
X343680381Y-342926286D01*
X343680381Y-342545334D01*
X343728001Y-342450096D01*
X343775620Y-342402477D01*
X343870858Y-342354858D01*
X344013715Y-342354858D01*
X344108953Y-342402477D01*
X344156572Y-342450096D01*
X344204191Y-342545334D01*
X344204191Y-342926286D01*
X344680381Y-341402477D02*
X344680381Y-341973905D01*
X344680381Y-341688191D02*
X343680381Y-341688191D01*
X343823239Y-341783429D01*
X343918477Y-341878667D01*
X343966096Y-341973905D01*
X343680381Y-341069143D02*
X343680381Y-340402477D01*
X344680381Y-340831048D01*
%TO.C,R16*%
X395734381Y-362547858D02*
X395258191Y-362881191D01*
X395734381Y-363119286D02*
X394734381Y-363119286D01*
X394734381Y-362738334D01*
X394782001Y-362643096D01*
X394829620Y-362595477D01*
X394924858Y-362547858D01*
X395067715Y-362547858D01*
X395162953Y-362595477D01*
X395210572Y-362643096D01*
X395258191Y-362738334D01*
X395258191Y-363119286D01*
X395734381Y-361595477D02*
X395734381Y-362166905D01*
X395734381Y-361881191D02*
X394734381Y-361881191D01*
X394877239Y-361976429D01*
X394972477Y-362071667D01*
X395020096Y-362166905D01*
X394734381Y-360738334D02*
X394734381Y-360928810D01*
X394782001Y-361024048D01*
X394829620Y-361071667D01*
X394972477Y-361166905D01*
X395162953Y-361214524D01*
X395543905Y-361214524D01*
X395639143Y-361166905D01*
X395686762Y-361119286D01*
X395734381Y-361024048D01*
X395734381Y-360833572D01*
X395686762Y-360738334D01*
X395639143Y-360690715D01*
X395543905Y-360643096D01*
X395305810Y-360643096D01*
X395210572Y-360690715D01*
X395162953Y-360738334D01*
X395115334Y-360833572D01*
X395115334Y-361024048D01*
X395162953Y-361119286D01*
X395210572Y-361166905D01*
X395305810Y-361214524D01*
%TO.C,R15*%
X391767381Y-356197858D02*
X391291191Y-356531191D01*
X391767381Y-356769286D02*
X390767381Y-356769286D01*
X390767381Y-356388334D01*
X390815001Y-356293096D01*
X390862620Y-356245477D01*
X390957858Y-356197858D01*
X391100715Y-356197858D01*
X391195953Y-356245477D01*
X391243572Y-356293096D01*
X391291191Y-356388334D01*
X391291191Y-356769286D01*
X391767381Y-355245477D02*
X391767381Y-355816905D01*
X391767381Y-355531191D02*
X390767381Y-355531191D01*
X390910239Y-355626429D01*
X391005477Y-355721667D01*
X391053096Y-355816905D01*
X390767381Y-354340715D02*
X390767381Y-354816905D01*
X391243572Y-354864524D01*
X391195953Y-354816905D01*
X391148334Y-354721667D01*
X391148334Y-354483572D01*
X391195953Y-354388334D01*
X391243572Y-354340715D01*
X391338810Y-354293096D01*
X391576905Y-354293096D01*
X391672143Y-354340715D01*
X391719762Y-354388334D01*
X391767381Y-354483572D01*
X391767381Y-354721667D01*
X391719762Y-354816905D01*
X391672143Y-354864524D01*
%TO.C,R14*%
X391767381Y-349847858D02*
X391291191Y-350181191D01*
X391767381Y-350419286D02*
X390767381Y-350419286D01*
X390767381Y-350038334D01*
X390815001Y-349943096D01*
X390862620Y-349895477D01*
X390957858Y-349847858D01*
X391100715Y-349847858D01*
X391195953Y-349895477D01*
X391243572Y-349943096D01*
X391291191Y-350038334D01*
X391291191Y-350419286D01*
X391767381Y-348895477D02*
X391767381Y-349466905D01*
X391767381Y-349181191D02*
X390767381Y-349181191D01*
X390910239Y-349276429D01*
X391005477Y-349371667D01*
X391053096Y-349466905D01*
X391100715Y-348038334D02*
X391767381Y-348038334D01*
X390719762Y-348276429D02*
X391434048Y-348514524D01*
X391434048Y-347895477D01*
%TO.C,R13*%
X391767381Y-342227858D02*
X391291191Y-342561191D01*
X391767381Y-342799286D02*
X390767381Y-342799286D01*
X390767381Y-342418334D01*
X390815001Y-342323096D01*
X390862620Y-342275477D01*
X390957858Y-342227858D01*
X391100715Y-342227858D01*
X391195953Y-342275477D01*
X391243572Y-342323096D01*
X391291191Y-342418334D01*
X391291191Y-342799286D01*
X391767381Y-341275477D02*
X391767381Y-341846905D01*
X391767381Y-341561191D02*
X390767381Y-341561191D01*
X390910239Y-341656429D01*
X391005477Y-341751667D01*
X391053096Y-341846905D01*
X390767381Y-340942143D02*
X390767381Y-340323096D01*
X391148334Y-340656429D01*
X391148334Y-340513572D01*
X391195953Y-340418334D01*
X391243572Y-340370715D01*
X391338810Y-340323096D01*
X391576905Y-340323096D01*
X391672143Y-340370715D01*
X391719762Y-340418334D01*
X391767381Y-340513572D01*
X391767381Y-340799286D01*
X391719762Y-340894524D01*
X391672143Y-340942143D01*
%TO.C,R12*%
X315567381Y-362547858D02*
X315091191Y-362881191D01*
X315567381Y-363119286D02*
X314567381Y-363119286D01*
X314567381Y-362738334D01*
X314615001Y-362643096D01*
X314662620Y-362595477D01*
X314757858Y-362547858D01*
X314900715Y-362547858D01*
X314995953Y-362595477D01*
X315043572Y-362643096D01*
X315091191Y-362738334D01*
X315091191Y-363119286D01*
X315567381Y-361595477D02*
X315567381Y-362166905D01*
X315567381Y-361881191D02*
X314567381Y-361881191D01*
X314710239Y-361976429D01*
X314805477Y-362071667D01*
X314853096Y-362166905D01*
X314662620Y-361214524D02*
X314615001Y-361166905D01*
X314567381Y-361071667D01*
X314567381Y-360833572D01*
X314615001Y-360738334D01*
X314662620Y-360690715D01*
X314757858Y-360643096D01*
X314853096Y-360643096D01*
X314995953Y-360690715D01*
X315567381Y-361262143D01*
X315567381Y-360643096D01*
%TO.C,R11*%
X315567381Y-356197858D02*
X315091191Y-356531191D01*
X315567381Y-356769286D02*
X314567381Y-356769286D01*
X314567381Y-356388334D01*
X314615001Y-356293096D01*
X314662620Y-356245477D01*
X314757858Y-356197858D01*
X314900715Y-356197858D01*
X314995953Y-356245477D01*
X315043572Y-356293096D01*
X315091191Y-356388334D01*
X315091191Y-356769286D01*
X315567381Y-355245477D02*
X315567381Y-355816905D01*
X315567381Y-355531191D02*
X314567381Y-355531191D01*
X314710239Y-355626429D01*
X314805477Y-355721667D01*
X314853096Y-355816905D01*
X315567381Y-354293096D02*
X315567381Y-354864524D01*
X315567381Y-354578810D02*
X314567381Y-354578810D01*
X314710239Y-354674048D01*
X314805477Y-354769286D01*
X314853096Y-354864524D01*
%TO.C,R10*%
X319407381Y-349847858D02*
X318931191Y-350181191D01*
X319407381Y-350419286D02*
X318407381Y-350419286D01*
X318407381Y-350038334D01*
X318455001Y-349943096D01*
X318502620Y-349895477D01*
X318597858Y-349847858D01*
X318740715Y-349847858D01*
X318835953Y-349895477D01*
X318883572Y-349943096D01*
X318931191Y-350038334D01*
X318931191Y-350419286D01*
X319407381Y-348895477D02*
X319407381Y-349466905D01*
X319407381Y-349181191D02*
X318407381Y-349181191D01*
X318550239Y-349276429D01*
X318645477Y-349371667D01*
X318693096Y-349466905D01*
X318407381Y-348276429D02*
X318407381Y-348181191D01*
X318455001Y-348085953D01*
X318502620Y-348038334D01*
X318597858Y-347990715D01*
X318788334Y-347943096D01*
X319026429Y-347943096D01*
X319216905Y-347990715D01*
X319312143Y-348038334D01*
X319359762Y-348085953D01*
X319407381Y-348181191D01*
X319407381Y-348276429D01*
X319359762Y-348371667D01*
X319312143Y-348419286D01*
X319216905Y-348466905D01*
X319026429Y-348514524D01*
X318788334Y-348514524D01*
X318597858Y-348466905D01*
X318502620Y-348419286D01*
X318455001Y-348371667D01*
X318407381Y-348276429D01*
%TO.C,R9*%
X319407381Y-341751667D02*
X318931191Y-342085001D01*
X319407381Y-342323096D02*
X318407381Y-342323096D01*
X318407381Y-341942143D01*
X318455001Y-341846905D01*
X318502620Y-341799286D01*
X318597858Y-341751667D01*
X318740715Y-341751667D01*
X318835953Y-341799286D01*
X318883572Y-341846905D01*
X318931191Y-341942143D01*
X318931191Y-342323096D01*
X319407381Y-341275477D02*
X319407381Y-341085001D01*
X319359762Y-340989762D01*
X319312143Y-340942143D01*
X319169286Y-340846905D01*
X318978810Y-340799286D01*
X318597858Y-340799286D01*
X318502620Y-340846905D01*
X318455001Y-340894524D01*
X318407381Y-340989762D01*
X318407381Y-341180239D01*
X318455001Y-341275477D01*
X318502620Y-341323096D01*
X318597858Y-341370715D01*
X318835953Y-341370715D01*
X318931191Y-341323096D01*
X318978810Y-341275477D01*
X319026429Y-341180239D01*
X319026429Y-340989762D01*
X318978810Y-340894524D01*
X318931191Y-340846905D01*
X318835953Y-340799286D01*
%TO.C,R8*%
X366748381Y-362071667D02*
X366272191Y-362405001D01*
X366748381Y-362643096D02*
X365748381Y-362643096D01*
X365748381Y-362262143D01*
X365796001Y-362166905D01*
X365843620Y-362119286D01*
X365938858Y-362071667D01*
X366081715Y-362071667D01*
X366176953Y-362119286D01*
X366224572Y-362166905D01*
X366272191Y-362262143D01*
X366272191Y-362643096D01*
X366176953Y-361500239D02*
X366129334Y-361595477D01*
X366081715Y-361643096D01*
X365986477Y-361690715D01*
X365938858Y-361690715D01*
X365843620Y-361643096D01*
X365796001Y-361595477D01*
X365748381Y-361500239D01*
X365748381Y-361309762D01*
X365796001Y-361214524D01*
X365843620Y-361166905D01*
X365938858Y-361119286D01*
X365986477Y-361119286D01*
X366081715Y-361166905D01*
X366129334Y-361214524D01*
X366176953Y-361309762D01*
X366176953Y-361500239D01*
X366224572Y-361595477D01*
X366272191Y-361643096D01*
X366367429Y-361690715D01*
X366557905Y-361690715D01*
X366653143Y-361643096D01*
X366700762Y-361595477D01*
X366748381Y-361500239D01*
X366748381Y-361309762D01*
X366700762Y-361214524D01*
X366653143Y-361166905D01*
X366557905Y-361119286D01*
X366367429Y-361119286D01*
X366272191Y-361166905D01*
X366224572Y-361214524D01*
X366176953Y-361309762D01*
%TO.C,R7*%
X366748381Y-355721667D02*
X366272191Y-356055001D01*
X366748381Y-356293096D02*
X365748381Y-356293096D01*
X365748381Y-355912143D01*
X365796001Y-355816905D01*
X365843620Y-355769286D01*
X365938858Y-355721667D01*
X366081715Y-355721667D01*
X366176953Y-355769286D01*
X366224572Y-355816905D01*
X366272191Y-355912143D01*
X366272191Y-356293096D01*
X365748381Y-355388334D02*
X365748381Y-354721667D01*
X366748381Y-355150239D01*
%TO.C,R6*%
X366621381Y-349498667D02*
X366145191Y-349832001D01*
X366621381Y-350070096D02*
X365621381Y-350070096D01*
X365621381Y-349689143D01*
X365669001Y-349593905D01*
X365716620Y-349546286D01*
X365811858Y-349498667D01*
X365954715Y-349498667D01*
X366049953Y-349546286D01*
X366097572Y-349593905D01*
X366145191Y-349689143D01*
X366145191Y-350070096D01*
X365621381Y-348641524D02*
X365621381Y-348832001D01*
X365669001Y-348927239D01*
X365716620Y-348974858D01*
X365859477Y-349070096D01*
X366049953Y-349117715D01*
X366430905Y-349117715D01*
X366526143Y-349070096D01*
X366573762Y-349022477D01*
X366621381Y-348927239D01*
X366621381Y-348736762D01*
X366573762Y-348641524D01*
X366526143Y-348593905D01*
X366430905Y-348546286D01*
X366192810Y-348546286D01*
X366097572Y-348593905D01*
X366049953Y-348641524D01*
X366002334Y-348736762D01*
X366002334Y-348927239D01*
X366049953Y-349022477D01*
X366097572Y-349070096D01*
X366192810Y-349117715D01*
%TO.C,R5*%
X366748381Y-341878667D02*
X366272191Y-342212001D01*
X366748381Y-342450096D02*
X365748381Y-342450096D01*
X365748381Y-342069143D01*
X365796001Y-341973905D01*
X365843620Y-341926286D01*
X365938858Y-341878667D01*
X366081715Y-341878667D01*
X366176953Y-341926286D01*
X366224572Y-341973905D01*
X366272191Y-342069143D01*
X366272191Y-342450096D01*
X365748381Y-340973905D02*
X365748381Y-341450096D01*
X366224572Y-341497715D01*
X366176953Y-341450096D01*
X366129334Y-341354858D01*
X366129334Y-341116762D01*
X366176953Y-341021524D01*
X366224572Y-340973905D01*
X366319810Y-340926286D01*
X366557905Y-340926286D01*
X366653143Y-340973905D01*
X366700762Y-341021524D01*
X366748381Y-341116762D01*
X366748381Y-341354858D01*
X366700762Y-341450096D01*
X366653143Y-341497715D01*
%TO.C,Q20*%
X343105620Y-362603429D02*
X343058001Y-362698667D01*
X342962762Y-362793905D01*
X342819905Y-362936762D01*
X342772286Y-363032001D01*
X342772286Y-363127239D01*
X343010381Y-363079620D02*
X342962762Y-363174858D01*
X342867524Y-363270096D01*
X342677048Y-363317715D01*
X342343715Y-363317715D01*
X342153239Y-363270096D01*
X342058001Y-363174858D01*
X342010381Y-363079620D01*
X342010381Y-362889143D01*
X342058001Y-362793905D01*
X342153239Y-362698667D01*
X342343715Y-362651048D01*
X342677048Y-362651048D01*
X342867524Y-362698667D01*
X342962762Y-362793905D01*
X343010381Y-362889143D01*
X343010381Y-363079620D01*
X342105620Y-362270096D02*
X342058001Y-362222477D01*
X342010381Y-362127239D01*
X342010381Y-361889143D01*
X342058001Y-361793905D01*
X342105620Y-361746286D01*
X342200858Y-361698667D01*
X342296096Y-361698667D01*
X342438953Y-361746286D01*
X343010381Y-362317715D01*
X343010381Y-361698667D01*
X342010381Y-361079620D02*
X342010381Y-360984381D01*
X342058001Y-360889143D01*
X342105620Y-360841524D01*
X342200858Y-360793905D01*
X342391334Y-360746286D01*
X342629429Y-360746286D01*
X342819905Y-360793905D01*
X342915143Y-360841524D01*
X342962762Y-360889143D01*
X343010381Y-360984381D01*
X343010381Y-361079620D01*
X342962762Y-361174858D01*
X342915143Y-361222477D01*
X342819905Y-361270096D01*
X342629429Y-361317715D01*
X342391334Y-361317715D01*
X342200858Y-361270096D01*
X342105620Y-361222477D01*
X342058001Y-361174858D01*
X342010381Y-361079620D01*
%TO.C,Q19*%
X343105620Y-356253429D02*
X343058001Y-356348667D01*
X342962762Y-356443905D01*
X342819905Y-356586762D01*
X342772286Y-356682001D01*
X342772286Y-356777239D01*
X343010381Y-356729620D02*
X342962762Y-356824858D01*
X342867524Y-356920096D01*
X342677048Y-356967715D01*
X342343715Y-356967715D01*
X342153239Y-356920096D01*
X342058001Y-356824858D01*
X342010381Y-356729620D01*
X342010381Y-356539143D01*
X342058001Y-356443905D01*
X342153239Y-356348667D01*
X342343715Y-356301048D01*
X342677048Y-356301048D01*
X342867524Y-356348667D01*
X342962762Y-356443905D01*
X343010381Y-356539143D01*
X343010381Y-356729620D01*
X343010381Y-355348667D02*
X343010381Y-355920096D01*
X343010381Y-355634381D02*
X342010381Y-355634381D01*
X342153239Y-355729620D01*
X342248477Y-355824858D01*
X342296096Y-355920096D01*
X343010381Y-354872477D02*
X343010381Y-354682001D01*
X342962762Y-354586762D01*
X342915143Y-354539143D01*
X342772286Y-354443905D01*
X342581810Y-354396286D01*
X342200858Y-354396286D01*
X342105620Y-354443905D01*
X342058001Y-354491524D01*
X342010381Y-354586762D01*
X342010381Y-354777239D01*
X342058001Y-354872477D01*
X342105620Y-354920096D01*
X342200858Y-354967715D01*
X342438953Y-354967715D01*
X342534191Y-354920096D01*
X342581810Y-354872477D01*
X342629429Y-354777239D01*
X342629429Y-354586762D01*
X342581810Y-354491524D01*
X342534191Y-354443905D01*
X342438953Y-354396286D01*
%TO.C,Q18*%
X343105620Y-349903429D02*
X343058001Y-349998667D01*
X342962762Y-350093905D01*
X342819905Y-350236762D01*
X342772286Y-350332001D01*
X342772286Y-350427239D01*
X343010381Y-350379620D02*
X342962762Y-350474858D01*
X342867524Y-350570096D01*
X342677048Y-350617715D01*
X342343715Y-350617715D01*
X342153239Y-350570096D01*
X342058001Y-350474858D01*
X342010381Y-350379620D01*
X342010381Y-350189143D01*
X342058001Y-350093905D01*
X342153239Y-349998667D01*
X342343715Y-349951048D01*
X342677048Y-349951048D01*
X342867524Y-349998667D01*
X342962762Y-350093905D01*
X343010381Y-350189143D01*
X343010381Y-350379620D01*
X343010381Y-348998667D02*
X343010381Y-349570096D01*
X343010381Y-349284381D02*
X342010381Y-349284381D01*
X342153239Y-349379620D01*
X342248477Y-349474858D01*
X342296096Y-349570096D01*
X342438953Y-348427239D02*
X342391334Y-348522477D01*
X342343715Y-348570096D01*
X342248477Y-348617715D01*
X342200858Y-348617715D01*
X342105620Y-348570096D01*
X342058001Y-348522477D01*
X342010381Y-348427239D01*
X342010381Y-348236762D01*
X342058001Y-348141524D01*
X342105620Y-348093905D01*
X342200858Y-348046286D01*
X342248477Y-348046286D01*
X342343715Y-348093905D01*
X342391334Y-348141524D01*
X342438953Y-348236762D01*
X342438953Y-348427239D01*
X342486572Y-348522477D01*
X342534191Y-348570096D01*
X342629429Y-348617715D01*
X342819905Y-348617715D01*
X342915143Y-348570096D01*
X342962762Y-348522477D01*
X343010381Y-348427239D01*
X343010381Y-348236762D01*
X342962762Y-348141524D01*
X342915143Y-348093905D01*
X342819905Y-348046286D01*
X342629429Y-348046286D01*
X342534191Y-348093905D01*
X342486572Y-348141524D01*
X342438953Y-348236762D01*
%TO.C,Q17*%
X343105620Y-342283429D02*
X343058001Y-342378667D01*
X342962762Y-342473905D01*
X342819905Y-342616762D01*
X342772286Y-342712001D01*
X342772286Y-342807239D01*
X343010381Y-342759620D02*
X342962762Y-342854858D01*
X342867524Y-342950096D01*
X342677048Y-342997715D01*
X342343715Y-342997715D01*
X342153239Y-342950096D01*
X342058001Y-342854858D01*
X342010381Y-342759620D01*
X342010381Y-342569143D01*
X342058001Y-342473905D01*
X342153239Y-342378667D01*
X342343715Y-342331048D01*
X342677048Y-342331048D01*
X342867524Y-342378667D01*
X342962762Y-342473905D01*
X343010381Y-342569143D01*
X343010381Y-342759620D01*
X343010381Y-341378667D02*
X343010381Y-341950096D01*
X343010381Y-341664381D02*
X342010381Y-341664381D01*
X342153239Y-341759620D01*
X342248477Y-341854858D01*
X342296096Y-341950096D01*
X342010381Y-341045334D02*
X342010381Y-340378667D01*
X343010381Y-340807239D01*
%TO.C,Q16*%
X394032620Y-362476429D02*
X393985001Y-362571667D01*
X393889762Y-362666905D01*
X393746905Y-362809762D01*
X393699286Y-362905001D01*
X393699286Y-363000239D01*
X393937381Y-362952620D02*
X393889762Y-363047858D01*
X393794524Y-363143096D01*
X393604048Y-363190715D01*
X393270715Y-363190715D01*
X393080239Y-363143096D01*
X392985001Y-363047858D01*
X392937381Y-362952620D01*
X392937381Y-362762143D01*
X392985001Y-362666905D01*
X393080239Y-362571667D01*
X393270715Y-362524048D01*
X393604048Y-362524048D01*
X393794524Y-362571667D01*
X393889762Y-362666905D01*
X393937381Y-362762143D01*
X393937381Y-362952620D01*
X393937381Y-361571667D02*
X393937381Y-362143096D01*
X393937381Y-361857381D02*
X392937381Y-361857381D01*
X393080239Y-361952620D01*
X393175477Y-362047858D01*
X393223096Y-362143096D01*
X392937381Y-360714524D02*
X392937381Y-360905001D01*
X392985001Y-361000239D01*
X393032620Y-361047858D01*
X393175477Y-361143096D01*
X393365953Y-361190715D01*
X393746905Y-361190715D01*
X393842143Y-361143096D01*
X393889762Y-361095477D01*
X393937381Y-361000239D01*
X393937381Y-360809762D01*
X393889762Y-360714524D01*
X393842143Y-360666905D01*
X393746905Y-360619286D01*
X393508810Y-360619286D01*
X393413572Y-360666905D01*
X393365953Y-360714524D01*
X393318334Y-360809762D01*
X393318334Y-361000239D01*
X393365953Y-361095477D01*
X393413572Y-361143096D01*
X393508810Y-361190715D01*
%TO.C,Q15*%
X394032620Y-356126429D02*
X393985001Y-356221667D01*
X393889762Y-356316905D01*
X393746905Y-356459762D01*
X393699286Y-356555001D01*
X393699286Y-356650239D01*
X393937381Y-356602620D02*
X393889762Y-356697858D01*
X393794524Y-356793096D01*
X393604048Y-356840715D01*
X393270715Y-356840715D01*
X393080239Y-356793096D01*
X392985001Y-356697858D01*
X392937381Y-356602620D01*
X392937381Y-356412143D01*
X392985001Y-356316905D01*
X393080239Y-356221667D01*
X393270715Y-356174048D01*
X393604048Y-356174048D01*
X393794524Y-356221667D01*
X393889762Y-356316905D01*
X393937381Y-356412143D01*
X393937381Y-356602620D01*
X393937381Y-355221667D02*
X393937381Y-355793096D01*
X393937381Y-355507381D02*
X392937381Y-355507381D01*
X393080239Y-355602620D01*
X393175477Y-355697858D01*
X393223096Y-355793096D01*
X392937381Y-354316905D02*
X392937381Y-354793096D01*
X393413572Y-354840715D01*
X393365953Y-354793096D01*
X393318334Y-354697858D01*
X393318334Y-354459762D01*
X393365953Y-354364524D01*
X393413572Y-354316905D01*
X393508810Y-354269286D01*
X393746905Y-354269286D01*
X393842143Y-354316905D01*
X393889762Y-354364524D01*
X393937381Y-354459762D01*
X393937381Y-354697858D01*
X393889762Y-354793096D01*
X393842143Y-354840715D01*
%TO.C,Q14*%
X394032620Y-349776429D02*
X393985001Y-349871667D01*
X393889762Y-349966905D01*
X393746905Y-350109762D01*
X393699286Y-350205001D01*
X393699286Y-350300239D01*
X393937381Y-350252620D02*
X393889762Y-350347858D01*
X393794524Y-350443096D01*
X393604048Y-350490715D01*
X393270715Y-350490715D01*
X393080239Y-350443096D01*
X392985001Y-350347858D01*
X392937381Y-350252620D01*
X392937381Y-350062143D01*
X392985001Y-349966905D01*
X393080239Y-349871667D01*
X393270715Y-349824048D01*
X393604048Y-349824048D01*
X393794524Y-349871667D01*
X393889762Y-349966905D01*
X393937381Y-350062143D01*
X393937381Y-350252620D01*
X393937381Y-348871667D02*
X393937381Y-349443096D01*
X393937381Y-349157381D02*
X392937381Y-349157381D01*
X393080239Y-349252620D01*
X393175477Y-349347858D01*
X393223096Y-349443096D01*
X393270715Y-348014524D02*
X393937381Y-348014524D01*
X392889762Y-348252620D02*
X393604048Y-348490715D01*
X393604048Y-347871667D01*
%TO.C,Q13*%
X394032620Y-342156429D02*
X393985001Y-342251667D01*
X393889762Y-342346905D01*
X393746905Y-342489762D01*
X393699286Y-342585001D01*
X393699286Y-342680239D01*
X393937381Y-342632620D02*
X393889762Y-342727858D01*
X393794524Y-342823096D01*
X393604048Y-342870715D01*
X393270715Y-342870715D01*
X393080239Y-342823096D01*
X392985001Y-342727858D01*
X392937381Y-342632620D01*
X392937381Y-342442143D01*
X392985001Y-342346905D01*
X393080239Y-342251667D01*
X393270715Y-342204048D01*
X393604048Y-342204048D01*
X393794524Y-342251667D01*
X393889762Y-342346905D01*
X393937381Y-342442143D01*
X393937381Y-342632620D01*
X393937381Y-341251667D02*
X393937381Y-341823096D01*
X393937381Y-341537381D02*
X392937381Y-341537381D01*
X393080239Y-341632620D01*
X393175477Y-341727858D01*
X393223096Y-341823096D01*
X392937381Y-340918334D02*
X392937381Y-340299286D01*
X393318334Y-340632620D01*
X393318334Y-340489762D01*
X393365953Y-340394524D01*
X393413572Y-340346905D01*
X393508810Y-340299286D01*
X393746905Y-340299286D01*
X393842143Y-340346905D01*
X393889762Y-340394524D01*
X393937381Y-340489762D01*
X393937381Y-340775477D01*
X393889762Y-340870715D01*
X393842143Y-340918334D01*
%TO.C,Q12*%
X317832620Y-362476429D02*
X317785001Y-362571667D01*
X317689762Y-362666905D01*
X317546905Y-362809762D01*
X317499286Y-362905001D01*
X317499286Y-363000239D01*
X317737381Y-362952620D02*
X317689762Y-363047858D01*
X317594524Y-363143096D01*
X317404048Y-363190715D01*
X317070715Y-363190715D01*
X316880239Y-363143096D01*
X316785001Y-363047858D01*
X316737381Y-362952620D01*
X316737381Y-362762143D01*
X316785001Y-362666905D01*
X316880239Y-362571667D01*
X317070715Y-362524048D01*
X317404048Y-362524048D01*
X317594524Y-362571667D01*
X317689762Y-362666905D01*
X317737381Y-362762143D01*
X317737381Y-362952620D01*
X317737381Y-361571667D02*
X317737381Y-362143096D01*
X317737381Y-361857381D02*
X316737381Y-361857381D01*
X316880239Y-361952620D01*
X316975477Y-362047858D01*
X317023096Y-362143096D01*
X316832620Y-361190715D02*
X316785001Y-361143096D01*
X316737381Y-361047858D01*
X316737381Y-360809762D01*
X316785001Y-360714524D01*
X316832620Y-360666905D01*
X316927858Y-360619286D01*
X317023096Y-360619286D01*
X317165953Y-360666905D01*
X317737381Y-361238334D01*
X317737381Y-360619286D01*
%TO.C,Q11*%
X317832620Y-356126429D02*
X317785001Y-356221667D01*
X317689762Y-356316905D01*
X317546905Y-356459762D01*
X317499286Y-356555001D01*
X317499286Y-356650239D01*
X317737381Y-356602620D02*
X317689762Y-356697858D01*
X317594524Y-356793096D01*
X317404048Y-356840715D01*
X317070715Y-356840715D01*
X316880239Y-356793096D01*
X316785001Y-356697858D01*
X316737381Y-356602620D01*
X316737381Y-356412143D01*
X316785001Y-356316905D01*
X316880239Y-356221667D01*
X317070715Y-356174048D01*
X317404048Y-356174048D01*
X317594524Y-356221667D01*
X317689762Y-356316905D01*
X317737381Y-356412143D01*
X317737381Y-356602620D01*
X317737381Y-355221667D02*
X317737381Y-355793096D01*
X317737381Y-355507381D02*
X316737381Y-355507381D01*
X316880239Y-355602620D01*
X316975477Y-355697858D01*
X317023096Y-355793096D01*
X317737381Y-354269286D02*
X317737381Y-354840715D01*
X317737381Y-354555001D02*
X316737381Y-354555001D01*
X316880239Y-354650239D01*
X316975477Y-354745477D01*
X317023096Y-354840715D01*
%TO.C,Q10*%
X317832620Y-349776429D02*
X317785001Y-349871667D01*
X317689762Y-349966905D01*
X317546905Y-350109762D01*
X317499286Y-350205001D01*
X317499286Y-350300239D01*
X317737381Y-350252620D02*
X317689762Y-350347858D01*
X317594524Y-350443096D01*
X317404048Y-350490715D01*
X317070715Y-350490715D01*
X316880239Y-350443096D01*
X316785001Y-350347858D01*
X316737381Y-350252620D01*
X316737381Y-350062143D01*
X316785001Y-349966905D01*
X316880239Y-349871667D01*
X317070715Y-349824048D01*
X317404048Y-349824048D01*
X317594524Y-349871667D01*
X317689762Y-349966905D01*
X317737381Y-350062143D01*
X317737381Y-350252620D01*
X317737381Y-348871667D02*
X317737381Y-349443096D01*
X317737381Y-349157381D02*
X316737381Y-349157381D01*
X316880239Y-349252620D01*
X316975477Y-349347858D01*
X317023096Y-349443096D01*
X316737381Y-348252620D02*
X316737381Y-348157381D01*
X316785001Y-348062143D01*
X316832620Y-348014524D01*
X316927858Y-347966905D01*
X317118334Y-347919286D01*
X317356429Y-347919286D01*
X317546905Y-347966905D01*
X317642143Y-348014524D01*
X317689762Y-348062143D01*
X317737381Y-348157381D01*
X317737381Y-348252620D01*
X317689762Y-348347858D01*
X317642143Y-348395477D01*
X317546905Y-348443096D01*
X317356429Y-348490715D01*
X317118334Y-348490715D01*
X316927858Y-348443096D01*
X316832620Y-348395477D01*
X316785001Y-348347858D01*
X316737381Y-348252620D01*
%TO.C,Q8*%
X368886620Y-362127239D02*
X368839001Y-362222477D01*
X368743762Y-362317715D01*
X368600905Y-362460572D01*
X368553286Y-362555810D01*
X368553286Y-362651048D01*
X368791381Y-362603429D02*
X368743762Y-362698667D01*
X368648524Y-362793905D01*
X368458048Y-362841524D01*
X368124715Y-362841524D01*
X367934239Y-362793905D01*
X367839001Y-362698667D01*
X367791381Y-362603429D01*
X367791381Y-362412953D01*
X367839001Y-362317715D01*
X367934239Y-362222477D01*
X368124715Y-362174858D01*
X368458048Y-362174858D01*
X368648524Y-362222477D01*
X368743762Y-362317715D01*
X368791381Y-362412953D01*
X368791381Y-362603429D01*
X368219953Y-361603429D02*
X368172334Y-361698667D01*
X368124715Y-361746286D01*
X368029477Y-361793905D01*
X367981858Y-361793905D01*
X367886620Y-361746286D01*
X367839001Y-361698667D01*
X367791381Y-361603429D01*
X367791381Y-361412953D01*
X367839001Y-361317715D01*
X367886620Y-361270096D01*
X367981858Y-361222477D01*
X368029477Y-361222477D01*
X368124715Y-361270096D01*
X368172334Y-361317715D01*
X368219953Y-361412953D01*
X368219953Y-361603429D01*
X368267572Y-361698667D01*
X368315191Y-361746286D01*
X368410429Y-361793905D01*
X368600905Y-361793905D01*
X368696143Y-361746286D01*
X368743762Y-361698667D01*
X368791381Y-361603429D01*
X368791381Y-361412953D01*
X368743762Y-361317715D01*
X368696143Y-361270096D01*
X368600905Y-361222477D01*
X368410429Y-361222477D01*
X368315191Y-361270096D01*
X368267572Y-361317715D01*
X368219953Y-361412953D01*
%TO.C,Q7*%
X369013620Y-355523239D02*
X368966001Y-355618477D01*
X368870762Y-355713715D01*
X368727905Y-355856572D01*
X368680286Y-355951810D01*
X368680286Y-356047048D01*
X368918381Y-355999429D02*
X368870762Y-356094667D01*
X368775524Y-356189905D01*
X368585048Y-356237524D01*
X368251715Y-356237524D01*
X368061239Y-356189905D01*
X367966001Y-356094667D01*
X367918381Y-355999429D01*
X367918381Y-355808953D01*
X367966001Y-355713715D01*
X368061239Y-355618477D01*
X368251715Y-355570858D01*
X368585048Y-355570858D01*
X368775524Y-355618477D01*
X368870762Y-355713715D01*
X368918381Y-355808953D01*
X368918381Y-355999429D01*
X367918381Y-355237524D02*
X367918381Y-354570858D01*
X368918381Y-354999429D01*
%TO.C,Q6*%
X369013620Y-349427239D02*
X368966001Y-349522477D01*
X368870762Y-349617715D01*
X368727905Y-349760572D01*
X368680286Y-349855810D01*
X368680286Y-349951048D01*
X368918381Y-349903429D02*
X368870762Y-349998667D01*
X368775524Y-350093905D01*
X368585048Y-350141524D01*
X368251715Y-350141524D01*
X368061239Y-350093905D01*
X367966001Y-349998667D01*
X367918381Y-349903429D01*
X367918381Y-349712953D01*
X367966001Y-349617715D01*
X368061239Y-349522477D01*
X368251715Y-349474858D01*
X368585048Y-349474858D01*
X368775524Y-349522477D01*
X368870762Y-349617715D01*
X368918381Y-349712953D01*
X368918381Y-349903429D01*
X367918381Y-348617715D02*
X367918381Y-348808191D01*
X367966001Y-348903429D01*
X368013620Y-348951048D01*
X368156477Y-349046286D01*
X368346953Y-349093905D01*
X368727905Y-349093905D01*
X368823143Y-349046286D01*
X368870762Y-348998667D01*
X368918381Y-348903429D01*
X368918381Y-348712953D01*
X368870762Y-348617715D01*
X368823143Y-348570096D01*
X368727905Y-348522477D01*
X368489810Y-348522477D01*
X368394572Y-348570096D01*
X368346953Y-348617715D01*
X368299334Y-348712953D01*
X368299334Y-348903429D01*
X368346953Y-348998667D01*
X368394572Y-349046286D01*
X368489810Y-349093905D01*
%TO.C,Q5*%
X369013620Y-341934239D02*
X368966001Y-342029477D01*
X368870762Y-342124715D01*
X368727905Y-342267572D01*
X368680286Y-342362810D01*
X368680286Y-342458048D01*
X368918381Y-342410429D02*
X368870762Y-342505667D01*
X368775524Y-342600905D01*
X368585048Y-342648524D01*
X368251715Y-342648524D01*
X368061239Y-342600905D01*
X367966001Y-342505667D01*
X367918381Y-342410429D01*
X367918381Y-342219953D01*
X367966001Y-342124715D01*
X368061239Y-342029477D01*
X368251715Y-341981858D01*
X368585048Y-341981858D01*
X368775524Y-342029477D01*
X368870762Y-342124715D01*
X368918381Y-342219953D01*
X368918381Y-342410429D01*
X367918381Y-341077096D02*
X367918381Y-341553286D01*
X368394572Y-341600905D01*
X368346953Y-341553286D01*
X368299334Y-341458048D01*
X368299334Y-341219953D01*
X368346953Y-341124715D01*
X368394572Y-341077096D01*
X368489810Y-341029477D01*
X368727905Y-341029477D01*
X368823143Y-341077096D01*
X368870762Y-341124715D01*
X368918381Y-341219953D01*
X368918381Y-341458048D01*
X368870762Y-341553286D01*
X368823143Y-341600905D01*
%TO.C,J3*%
X349848667Y-345819381D02*
X349848667Y-346533667D01*
X349801048Y-346676524D01*
X349705810Y-346771762D01*
X349562953Y-346819381D01*
X349467715Y-346819381D01*
X350229620Y-345819381D02*
X350848667Y-345819381D01*
X350515334Y-346200334D01*
X350658191Y-346200334D01*
X350753429Y-346247953D01*
X350801048Y-346295572D01*
X350848667Y-346390810D01*
X350848667Y-346628905D01*
X350801048Y-346724143D01*
X350753429Y-346771762D01*
X350658191Y-346819381D01*
X350372477Y-346819381D01*
X350277239Y-346771762D01*
X350229620Y-346724143D01*
%TO.C,J2*%
X324575667Y-346327381D02*
X324575667Y-347041667D01*
X324528048Y-347184524D01*
X324432810Y-347279762D01*
X324289953Y-347327381D01*
X324194715Y-347327381D01*
X325004239Y-346422620D02*
X325051858Y-346375001D01*
X325147096Y-346327381D01*
X325385191Y-346327381D01*
X325480429Y-346375001D01*
X325528048Y-346422620D01*
X325575667Y-346517858D01*
X325575667Y-346613096D01*
X325528048Y-346755953D01*
X324956620Y-347327381D01*
X325575667Y-347327381D01*
%TO.C,J4*%
X375502667Y-345311381D02*
X375502667Y-346025667D01*
X375455048Y-346168524D01*
X375359810Y-346263762D01*
X375216953Y-346311381D01*
X375121715Y-346311381D01*
X376407429Y-345644715D02*
X376407429Y-346311381D01*
X376169334Y-345263762D02*
X375931239Y-345978048D01*
X376550286Y-345978048D01*
%TO.C,R4*%
X290167381Y-362071667D02*
X289691191Y-362405001D01*
X290167381Y-362643096D02*
X289167381Y-362643096D01*
X289167381Y-362262143D01*
X289215001Y-362166905D01*
X289262620Y-362119286D01*
X289357858Y-362071667D01*
X289500715Y-362071667D01*
X289595953Y-362119286D01*
X289643572Y-362166905D01*
X289691191Y-362262143D01*
X289691191Y-362643096D01*
X289500715Y-361214524D02*
X290167381Y-361214524D01*
X289119762Y-361452620D02*
X289834048Y-361690715D01*
X289834048Y-361071667D01*
%TO.C,R3*%
X290167381Y-355721667D02*
X289691191Y-356055001D01*
X290167381Y-356293096D02*
X289167381Y-356293096D01*
X289167381Y-355912143D01*
X289215001Y-355816905D01*
X289262620Y-355769286D01*
X289357858Y-355721667D01*
X289500715Y-355721667D01*
X289595953Y-355769286D01*
X289643572Y-355816905D01*
X289691191Y-355912143D01*
X289691191Y-356293096D01*
X289167381Y-355388334D02*
X289167381Y-354769286D01*
X289548334Y-355102620D01*
X289548334Y-354959762D01*
X289595953Y-354864524D01*
X289643572Y-354816905D01*
X289738810Y-354769286D01*
X289976905Y-354769286D01*
X290072143Y-354816905D01*
X290119762Y-354864524D01*
X290167381Y-354959762D01*
X290167381Y-355245477D01*
X290119762Y-355340715D01*
X290072143Y-355388334D01*
%TO.C,R2*%
X290167381Y-349371667D02*
X289691191Y-349705001D01*
X290167381Y-349943096D02*
X289167381Y-349943096D01*
X289167381Y-349562143D01*
X289215001Y-349466905D01*
X289262620Y-349419286D01*
X289357858Y-349371667D01*
X289500715Y-349371667D01*
X289595953Y-349419286D01*
X289643572Y-349466905D01*
X289691191Y-349562143D01*
X289691191Y-349943096D01*
X289262620Y-348990715D02*
X289215001Y-348943096D01*
X289167381Y-348847858D01*
X289167381Y-348609762D01*
X289215001Y-348514524D01*
X289262620Y-348466905D01*
X289357858Y-348419286D01*
X289453096Y-348419286D01*
X289595953Y-348466905D01*
X290167381Y-349038334D01*
X290167381Y-348419286D01*
%TO.C,R1*%
X290167381Y-341751667D02*
X289691191Y-342085001D01*
X290167381Y-342323096D02*
X289167381Y-342323096D01*
X289167381Y-341942143D01*
X289215001Y-341846905D01*
X289262620Y-341799286D01*
X289357858Y-341751667D01*
X289500715Y-341751667D01*
X289595953Y-341799286D01*
X289643572Y-341846905D01*
X289691191Y-341942143D01*
X289691191Y-342323096D01*
X290167381Y-340799286D02*
X290167381Y-341370715D01*
X290167381Y-341085001D02*
X289167381Y-341085001D01*
X289310239Y-341180239D01*
X289405477Y-341275477D01*
X289453096Y-341370715D01*
%TO.C,Q4*%
X292432620Y-362000239D02*
X292385001Y-362095477D01*
X292289762Y-362190715D01*
X292146905Y-362333572D01*
X292099286Y-362428810D01*
X292099286Y-362524048D01*
X292337381Y-362476429D02*
X292289762Y-362571667D01*
X292194524Y-362666905D01*
X292004048Y-362714524D01*
X291670715Y-362714524D01*
X291480239Y-362666905D01*
X291385001Y-362571667D01*
X291337381Y-362476429D01*
X291337381Y-362285953D01*
X291385001Y-362190715D01*
X291480239Y-362095477D01*
X291670715Y-362047858D01*
X292004048Y-362047858D01*
X292194524Y-362095477D01*
X292289762Y-362190715D01*
X292337381Y-362285953D01*
X292337381Y-362476429D01*
X291670715Y-361190715D02*
X292337381Y-361190715D01*
X291289762Y-361428810D02*
X292004048Y-361666905D01*
X292004048Y-361047858D01*
%TO.C,Q3*%
X292432620Y-355650239D02*
X292385001Y-355745477D01*
X292289762Y-355840715D01*
X292146905Y-355983572D01*
X292099286Y-356078810D01*
X292099286Y-356174048D01*
X292337381Y-356126429D02*
X292289762Y-356221667D01*
X292194524Y-356316905D01*
X292004048Y-356364524D01*
X291670715Y-356364524D01*
X291480239Y-356316905D01*
X291385001Y-356221667D01*
X291337381Y-356126429D01*
X291337381Y-355935953D01*
X291385001Y-355840715D01*
X291480239Y-355745477D01*
X291670715Y-355697858D01*
X292004048Y-355697858D01*
X292194524Y-355745477D01*
X292289762Y-355840715D01*
X292337381Y-355935953D01*
X292337381Y-356126429D01*
X291337381Y-355364524D02*
X291337381Y-354745477D01*
X291718334Y-355078810D01*
X291718334Y-354935953D01*
X291765953Y-354840715D01*
X291813572Y-354793096D01*
X291908810Y-354745477D01*
X292146905Y-354745477D01*
X292242143Y-354793096D01*
X292289762Y-354840715D01*
X292337381Y-354935953D01*
X292337381Y-355221667D01*
X292289762Y-355316905D01*
X292242143Y-355364524D01*
%TO.C,Q2*%
X292432620Y-349300239D02*
X292385001Y-349395477D01*
X292289762Y-349490715D01*
X292146905Y-349633572D01*
X292099286Y-349728810D01*
X292099286Y-349824048D01*
X292337381Y-349776429D02*
X292289762Y-349871667D01*
X292194524Y-349966905D01*
X292004048Y-350014524D01*
X291670715Y-350014524D01*
X291480239Y-349966905D01*
X291385001Y-349871667D01*
X291337381Y-349776429D01*
X291337381Y-349585953D01*
X291385001Y-349490715D01*
X291480239Y-349395477D01*
X291670715Y-349347858D01*
X292004048Y-349347858D01*
X292194524Y-349395477D01*
X292289762Y-349490715D01*
X292337381Y-349585953D01*
X292337381Y-349776429D01*
X291432620Y-348966905D02*
X291385001Y-348919286D01*
X291337381Y-348824048D01*
X291337381Y-348585953D01*
X291385001Y-348490715D01*
X291432620Y-348443096D01*
X291527858Y-348395477D01*
X291623096Y-348395477D01*
X291765953Y-348443096D01*
X292337381Y-349014524D01*
X292337381Y-348395477D01*
%TO.C,Q1*%
X292432620Y-341680239D02*
X292385001Y-341775477D01*
X292289762Y-341870715D01*
X292146905Y-342013572D01*
X292099286Y-342108810D01*
X292099286Y-342204048D01*
X292337381Y-342156429D02*
X292289762Y-342251667D01*
X292194524Y-342346905D01*
X292004048Y-342394524D01*
X291670715Y-342394524D01*
X291480239Y-342346905D01*
X291385001Y-342251667D01*
X291337381Y-342156429D01*
X291337381Y-341965953D01*
X291385001Y-341870715D01*
X291480239Y-341775477D01*
X291670715Y-341727858D01*
X292004048Y-341727858D01*
X292194524Y-341775477D01*
X292289762Y-341870715D01*
X292337381Y-341965953D01*
X292337381Y-342156429D01*
X292337381Y-340775477D02*
X292337381Y-341346905D01*
X292337381Y-341061191D02*
X291337381Y-341061191D01*
X291480239Y-341156429D01*
X291575477Y-341251667D01*
X291623096Y-341346905D01*
%TO.C,J1*%
X299175667Y-346327381D02*
X299175667Y-347041667D01*
X299128048Y-347184524D01*
X299032810Y-347279762D01*
X298889953Y-347327381D01*
X298794715Y-347327381D01*
X300175667Y-347327381D02*
X299604239Y-347327381D01*
X299889953Y-347327381D02*
X299889953Y-346327381D01*
X299794715Y-346470239D01*
X299699477Y-346565477D01*
X299604239Y-346613096D01*
%TD*%
M02*
